<svg width="217" height="217" viewBox="0 0 217 217" fill="none" xmlns="http://www.w3.org/2000/svg">
<g filter="url(#filter0_d_1412_4905)">
<rect x="4" y="4" width="209" height="209" rx="15" fill="white"/>
<path d="M46.4993 183L51.7393 168.1H54.6593L59.8993 183H57.3793L56.2393 179.66H50.1793L49.0193 183H46.4993ZM50.8593 177.56H55.5193L52.8793 169.76H53.5393L50.8593 177.56ZM65.8563 183.24C64.8163 183.24 63.883 182.993 63.0563 182.5C62.243 181.993 61.5963 181.313 61.1163 180.46C60.6497 179.607 60.4163 178.647 60.4163 177.58C60.4163 176.513 60.6563 175.553 61.1363 174.7C61.6163 173.847 62.263 173.173 63.0763 172.68C63.8897 172.187 64.8097 171.94 65.8363 171.94C66.703 171.94 67.4697 172.113 68.1363 172.46C68.803 172.807 69.3297 173.287 69.7163 173.9L69.3763 174.42V167.86H71.6163V183H69.4763V180.8L69.7363 181.22C69.363 181.873 68.8297 182.373 68.1363 182.72C67.443 183.067 66.683 183.24 65.8563 183.24ZM66.0763 181.14C66.703 181.14 67.263 180.987 67.7563 180.68C68.263 180.373 68.6563 179.953 68.9363 179.42C69.2297 178.873 69.3763 178.26 69.3763 177.58C69.3763 176.9 69.2297 176.293 68.9363 175.76C68.6563 175.227 68.263 174.807 67.7563 174.5C67.263 174.193 66.703 174.04 66.0763 174.04C65.4497 174.04 64.883 174.193 64.3763 174.5C63.8697 174.807 63.4763 175.227 63.1963 175.76C62.9163 176.293 62.7763 176.9 62.7763 177.58C62.7763 178.26 62.9163 178.873 63.1963 179.42C63.4763 179.953 63.863 180.373 64.3563 180.68C64.863 180.987 65.4363 181.14 66.0763 181.14ZM79.0548 183.24C78.0148 183.24 77.0814 182.993 76.2548 182.5C75.4414 181.993 74.7948 181.313 74.3148 180.46C73.8481 179.607 73.6148 178.647 73.6148 177.58C73.6148 176.513 73.8548 175.553 74.3348 174.7C74.8148 173.847 75.4614 173.173 76.2748 172.68C77.0881 172.187 78.0081 171.94 79.0348 171.94C79.9014 171.94 80.6681 172.113 81.3348 172.46C82.0014 172.807 82.5281 173.287 82.9148 173.9L82.5748 174.42V167.86H84.8148V183H82.6748V180.8L82.9348 181.22C82.5614 181.873 82.0281 182.373 81.3348 182.72C80.6414 183.067 79.8814 183.24 79.0548 183.24ZM79.2748 181.14C79.9014 181.14 80.4614 180.987 80.9548 180.68C81.4614 180.373 81.8548 179.953 82.1348 179.42C82.4281 178.873 82.5748 178.26 82.5748 177.58C82.5748 176.9 82.4281 176.293 82.1348 175.76C81.8548 175.227 81.4614 174.807 80.9548 174.5C80.4614 174.193 79.9014 174.04 79.2748 174.04C78.6481 174.04 78.0814 174.193 77.5748 174.5C77.0681 174.807 76.6748 175.227 76.3948 175.76C76.1148 176.293 75.9748 176.9 75.9748 177.58C75.9748 178.26 76.1148 178.873 76.3948 179.42C76.6748 179.953 77.0614 180.373 77.5548 180.68C78.0614 180.987 78.6348 181.14 79.2748 181.14ZM90.7693 183V168.1H96.1893C97.1893 168.1 98.0693 168.287 98.8293 168.66C99.6026 169.02 100.203 169.553 100.629 170.26C101.056 170.953 101.269 171.787 101.269 172.76C101.269 173.72 101.049 174.547 100.609 175.24C100.183 175.933 99.5893 176.467 98.8293 176.84C98.0693 177.213 97.1893 177.4 96.1893 177.4H93.1293V183H90.7693ZM93.1293 175.3H96.2493C96.7826 175.3 97.2493 175.193 97.6493 174.98C98.0493 174.767 98.3626 174.473 98.5893 174.1C98.816 173.713 98.9293 173.26 98.9293 172.74C98.9293 172.22 98.816 171.773 98.5893 171.4C98.3626 171.013 98.0493 170.72 97.6493 170.52C97.2493 170.307 96.7826 170.2 96.2493 170.2H93.1293V175.3ZM105.816 183.24C105.083 183.24 104.436 183.113 103.876 182.86C103.329 182.593 102.903 182.233 102.596 181.78C102.289 181.313 102.136 180.767 102.136 180.14C102.136 179.553 102.263 179.027 102.516 178.56C102.783 178.093 103.189 177.7 103.736 177.38C104.283 177.06 104.969 176.833 105.796 176.7L109.556 176.08V177.86L106.236 178.44C105.636 178.547 105.196 178.74 104.916 179.02C104.636 179.287 104.496 179.633 104.496 180.06C104.496 180.473 104.649 180.813 104.956 181.08C105.276 181.333 105.683 181.46 106.176 181.46C106.789 181.46 107.323 181.327 107.776 181.06C108.243 180.793 108.603 180.44 108.856 180C109.109 179.547 109.236 179.047 109.236 178.5V175.72C109.236 175.187 109.036 174.753 108.636 174.42C108.249 174.073 107.729 173.9 107.076 173.9C106.476 173.9 105.949 174.06 105.496 174.38C105.056 174.687 104.729 175.087 104.516 175.58L102.636 174.64C102.836 174.107 103.163 173.64 103.616 173.24C104.069 172.827 104.596 172.507 105.196 172.28C105.809 172.053 106.456 171.94 107.136 171.94C107.989 171.94 108.743 172.1 109.396 172.42C110.063 172.74 110.576 173.187 110.936 173.76C111.309 174.32 111.496 174.973 111.496 175.72V183H109.336V181.04L109.796 181.1C109.543 181.54 109.216 181.92 108.816 182.24C108.429 182.56 107.983 182.807 107.476 182.98C106.983 183.153 106.429 183.24 105.816 183.24ZM118.423 183.12C117.29 183.12 116.41 182.8 115.783 182.16C115.156 181.52 114.843 180.62 114.843 179.46V174.22H112.943V172.18H113.243C113.75 172.18 114.143 172.033 114.423 171.74C114.703 171.447 114.843 171.047 114.843 170.54V169.7H117.103V172.18H119.563V174.22H117.103V179.36C117.103 179.733 117.163 180.053 117.283 180.32C117.403 180.573 117.596 180.773 117.863 180.92C118.13 181.053 118.476 181.12 118.903 181.12C119.01 181.12 119.13 181.113 119.263 181.1C119.396 181.087 119.523 181.073 119.643 181.06V183C119.456 183.027 119.25 183.053 119.023 183.08C118.796 183.107 118.596 183.12 118.423 183.12ZM121.649 183V172.18H123.909V183H121.649ZM121.649 170.7V168.1H123.909V170.7H121.649ZM131.431 183.24C130.351 183.24 129.391 182.993 128.551 182.5C127.724 181.993 127.078 181.313 126.611 180.46C126.144 179.593 125.911 178.627 125.911 177.56C125.911 176.467 126.144 175.5 126.611 174.66C127.091 173.82 127.731 173.16 128.531 172.68C129.331 172.187 130.238 171.94 131.251 171.94C132.064 171.94 132.791 172.08 133.431 172.36C134.071 172.64 134.611 173.027 135.051 173.52C135.491 174 135.824 174.553 136.051 175.18C136.291 175.807 136.411 176.473 136.411 177.18C136.411 177.353 136.404 177.533 136.391 177.72C136.378 177.907 136.351 178.08 136.311 178.24H127.691V176.44H135.031L133.951 177.26C134.084 176.607 134.038 176.027 133.811 175.52C133.598 175 133.264 174.593 132.811 174.3C132.371 173.993 131.851 173.84 131.251 173.84C130.651 173.84 130.118 173.993 129.651 174.3C129.184 174.593 128.824 175.02 128.571 175.58C128.318 176.127 128.218 176.793 128.271 177.58C128.204 178.313 128.304 178.953 128.571 179.5C128.851 180.047 129.238 180.473 129.731 180.78C130.238 181.087 130.811 181.24 131.451 181.24C132.104 181.24 132.658 181.093 133.111 180.8C133.578 180.507 133.944 180.127 134.211 179.66L136.051 180.56C135.838 181.067 135.504 181.527 135.051 181.94C134.611 182.34 134.078 182.66 133.451 182.9C132.838 183.127 132.164 183.24 131.431 183.24ZM138.416 183V172.18H140.576V174.3L140.316 174.02C140.583 173.34 141.01 172.827 141.596 172.48C142.183 172.12 142.863 171.94 143.636 171.94C144.436 171.94 145.143 172.113 145.756 172.46C146.37 172.807 146.85 173.287 147.196 173.9C147.543 174.513 147.716 175.22 147.716 176.02V183H145.476V176.62C145.476 176.073 145.376 175.613 145.176 175.24C144.976 174.853 144.69 174.56 144.316 174.36C143.956 174.147 143.543 174.04 143.076 174.04C142.61 174.04 142.19 174.147 141.816 174.36C141.456 174.56 141.176 174.853 140.976 175.24C140.776 175.627 140.676 176.087 140.676 176.62V183H138.416ZM154.615 183.12C153.482 183.12 152.602 182.8 151.975 182.16C151.349 181.52 151.035 180.62 151.035 179.46V174.22H149.135V172.18H149.435C149.942 172.18 150.335 172.033 150.615 171.74C150.895 171.447 151.035 171.047 151.035 170.54V169.7H153.295V172.18H155.755V174.22H153.295V179.36C153.295 179.733 153.355 180.053 153.475 180.32C153.595 180.573 153.789 180.773 154.055 180.92C154.322 181.053 154.669 181.12 155.095 181.12C155.202 181.12 155.322 181.113 155.455 181.1C155.589 181.087 155.715 181.073 155.835 181.06V183C155.649 183.027 155.442 183.053 155.215 183.08C154.989 183.107 154.789 183.12 154.615 183.12Z" fill="#3D4966"/>
<path opacity="0.4" d="M147.434 88.8469H142.368V83.8942C142.368 81.7797 140.672 80.0557 138.583 80.0557C136.498 80.0557 134.797 81.7797 134.797 83.8942V88.8469H129.74C127.651 88.8469 125.955 90.571 125.955 92.6854C125.955 94.7999 127.651 96.5239 129.74 96.5239H134.797V101.481C134.797 103.596 136.498 105.32 138.583 105.32C140.672 105.32 142.368 103.596 142.368 101.481V96.5239H147.434C149.519 96.5239 151.219 94.7999 151.219 92.6854C151.219 90.571 149.519 88.8469 147.434 88.8469Z" fill="#5D6A85"/>
<path d="M98.5799 111.696C81.5445 111.696 67 114.42 67 125.301C67 136.179 81.456 139 98.5799 139C115.611 139 130.16 136.277 130.16 125.395C130.16 114.514 115.704 111.696 98.5799 111.696Z" fill="#5D6A85"/>
<path opacity="0.4" d="M98.5912 101.335C110.19 101.335 119.487 91.9176 119.487 80.1695C119.487 68.4215 110.19 59 98.5912 59C86.9927 59 77.6953 68.4215 77.6953 80.1695C77.6953 91.9176 86.9927 101.335 98.5912 101.335Z" fill="#5D6A85"/>
</g>
<defs>
<filter id="filter0_d_1412_4905" x="0" y="0" width="217" height="217" filterUnits="userSpaceOnUse" color-interpolation-filters="sRGB">
<feFlood flood-opacity="0" result="BackgroundImageFix"/>
<feColorMatrix in="SourceAlpha" type="matrix" values="0 0 0 0 0 0 0 0 0 0 0 0 0 0 0 0 0 0 127 0" result="hardAlpha"/>
<feOffset/>
<feGaussianBlur stdDeviation="2"/>
<feComposite in2="hardAlpha" operator="out"/>
<feColorMatrix type="matrix" values="0 0 0 0 0.845783 0 0 0 0 0.889209 0 0 0 0 0.964217 0 0 0 0.39 0"/>
<feBlend mode="normal" in2="BackgroundImageFix" result="effect1_dropShadow_1412_4905"/>
<feBlend mode="normal" in="SourceGraphic" in2="effect1_dropShadow_1412_4905" result="shape"/>
</filter>
</defs>
</svg>
