<svg width="217" height="217" viewBox="0 0 217 217" fill="none" xmlns="http://www.w3.org/2000/svg">
<g filter="url(#filter0_d_1412_4914)">
<rect x="4" y="4" width="209" height="209" rx="15" fill="white"/>
<path d="M40.2497 183L45.4897 168.1H48.4097L53.6497 183H51.1297L49.9897 179.66H43.9297L42.7697 183H40.2497ZM44.6097 177.56H49.2697L46.6297 169.76H47.2897L44.6097 177.56ZM54.9973 187V172.18H57.1573V174.42L56.8973 173.9C57.2973 173.287 57.8307 172.807 58.4973 172.46C59.164 172.113 59.924 171.94 60.7773 171.94C61.804 171.94 62.724 172.187 63.5373 172.68C64.364 173.173 65.0107 173.847 65.4773 174.7C65.9573 175.553 66.1973 176.513 66.1973 177.58C66.1973 178.647 65.9573 179.607 65.4773 180.46C65.0107 181.313 64.3707 181.993 63.5573 182.5C62.744 182.993 61.8173 183.24 60.7773 183.24C59.9373 183.24 59.1707 183.067 58.4773 182.72C57.7973 182.373 57.2707 181.873 56.8973 181.22L57.2573 180.8V187H54.9973ZM60.5573 181.14C61.1973 181.14 61.764 180.987 62.2573 180.68C62.7507 180.373 63.1373 179.953 63.4173 179.42C63.7107 178.873 63.8573 178.26 63.8573 177.58C63.8573 176.9 63.7107 176.293 63.4173 175.76C63.1373 175.227 62.7507 174.807 62.2573 174.5C61.764 174.193 61.1973 174.04 60.5573 174.04C59.9307 174.04 59.364 174.193 58.8573 174.5C58.364 174.807 57.9707 175.227 57.6773 175.76C57.3973 176.293 57.2573 176.9 57.2573 177.58C57.2573 178.26 57.3973 178.873 57.6773 179.42C57.9707 179.953 58.364 180.373 58.8573 180.68C59.364 180.987 59.9307 181.14 60.5573 181.14ZM68.1958 187V172.18H70.3558V174.42L70.0958 173.9C70.4958 173.287 71.0291 172.807 71.6958 172.46C72.3624 172.113 73.1224 171.94 73.9758 171.94C75.0024 171.94 75.9224 172.187 76.7358 172.68C77.5624 173.173 78.2091 173.847 78.6758 174.7C79.1558 175.553 79.3958 176.513 79.3958 177.58C79.3958 178.647 79.1558 179.607 78.6758 180.46C78.2091 181.313 77.5691 181.993 76.7558 182.5C75.9424 182.993 75.0158 183.24 73.9758 183.24C73.1358 183.24 72.3691 183.067 71.6758 182.72C70.9958 182.373 70.4691 181.873 70.0958 181.22L70.4558 180.8V187H68.1958ZM73.7558 181.14C74.3958 181.14 74.9624 180.987 75.4558 180.68C75.9491 180.373 76.3358 179.953 76.6158 179.42C76.9091 178.873 77.0558 178.26 77.0558 177.58C77.0558 176.9 76.9091 176.293 76.6158 175.76C76.3358 175.227 75.9491 174.807 75.4558 174.5C74.9624 174.193 74.3958 174.04 73.7558 174.04C73.1291 174.04 72.5624 174.193 72.0558 174.5C71.5624 174.807 71.1691 175.227 70.8758 175.76C70.5958 176.293 70.4558 176.9 70.4558 177.58C70.4558 178.26 70.5958 178.873 70.8758 179.42C71.1691 179.953 71.5624 180.373 72.0558 180.68C72.5624 180.987 73.1291 181.14 73.7558 181.14ZM86.6142 183.24C85.5742 183.24 84.6209 182.993 83.7542 182.5C82.9009 182.007 82.2209 181.333 81.7142 180.48C81.2076 179.627 80.9542 178.66 80.9542 177.58C80.9542 176.487 81.2076 175.52 81.7142 174.68C82.2209 173.827 82.9009 173.16 83.7542 172.68C84.6076 172.187 85.5609 171.94 86.6142 171.94C87.6809 171.94 88.6342 172.187 89.4742 172.68C90.3276 173.16 91.0009 173.827 91.4942 174.68C92.0009 175.52 92.2542 176.487 92.2542 177.58C92.2542 178.673 92.0009 179.647 91.4942 180.5C90.9876 181.353 90.3076 182.027 89.4542 182.52C88.6009 183 87.6542 183.24 86.6142 183.24ZM86.6142 181.14C87.2542 181.14 87.8209 180.987 88.3142 180.68C88.8076 180.373 89.1942 179.953 89.4742 179.42C89.7676 178.873 89.9142 178.26 89.9142 177.58C89.9142 176.9 89.7676 176.293 89.4742 175.76C89.1942 175.227 88.8076 174.807 88.3142 174.5C87.8209 174.193 87.2542 174.04 86.6142 174.04C85.9876 174.04 85.4209 174.193 84.9142 174.5C84.4209 174.807 84.0276 175.227 83.7342 175.76C83.4542 176.293 83.3142 176.9 83.3142 177.58C83.3142 178.26 83.4542 178.873 83.7342 179.42C84.0276 179.953 84.4209 180.373 84.9142 180.68C85.4209 180.987 85.9876 181.14 86.6142 181.14ZM94.2606 183V172.18H96.5206V183H94.2606ZM94.2606 170.7V168.1H96.5206V170.7H94.2606ZM98.963 183V172.18H101.123V174.3L100.863 174.02C101.13 173.34 101.556 172.827 102.143 172.48C102.73 172.12 103.41 171.94 104.183 171.94C104.983 171.94 105.69 172.113 106.303 172.46C106.916 172.807 107.396 173.287 107.743 173.9C108.09 174.513 108.263 175.22 108.263 176.02V183H106.023V176.62C106.023 176.073 105.923 175.613 105.723 175.24C105.523 174.853 105.236 174.56 104.863 174.36C104.503 174.147 104.09 174.04 103.623 174.04C103.156 174.04 102.736 174.147 102.363 174.36C102.003 174.56 101.723 174.853 101.523 175.24C101.323 175.627 101.223 176.087 101.223 176.62V183H98.963ZM115.162 183.12C114.028 183.12 113.148 182.8 112.522 182.16C111.895 181.52 111.582 180.62 111.582 179.46V174.22H109.682V172.18H109.982C110.488 172.18 110.882 172.033 111.162 171.74C111.442 171.447 111.582 171.047 111.582 170.54V169.7H113.842V172.18H116.302V174.22H113.842V179.36C113.842 179.733 113.902 180.053 114.022 180.32C114.142 180.573 114.335 180.773 114.602 180.92C114.868 181.053 115.215 181.12 115.642 181.12C115.748 181.12 115.868 181.113 116.002 181.1C116.135 181.087 116.262 181.073 116.382 181.06V183C116.195 183.027 115.988 183.053 115.762 183.08C115.535 183.107 115.335 183.12 115.162 183.12ZM118.387 183V172.18H120.547V174.52L120.267 174.16C120.494 173.427 120.907 172.873 121.507 172.5C122.107 172.127 122.794 171.94 123.567 171.94C124.434 171.94 125.201 172.173 125.867 172.64C126.547 173.093 127.001 173.7 127.227 174.46L126.587 174.52C126.907 173.653 127.394 173.007 128.047 172.58C128.714 172.153 129.474 171.94 130.327 171.94C131.074 171.94 131.747 172.113 132.347 172.46C132.961 172.807 133.447 173.287 133.807 173.9C134.167 174.513 134.347 175.213 134.347 176V183H132.087V176.62C132.087 176.073 131.987 175.613 131.787 175.24C131.601 174.853 131.334 174.56 130.987 174.36C130.654 174.147 130.261 174.04 129.807 174.04C129.354 174.04 128.954 174.147 128.607 174.36C128.261 174.56 127.987 174.853 127.787 175.24C127.587 175.627 127.487 176.087 127.487 176.62V183H125.247V176.62C125.247 176.073 125.147 175.613 124.947 175.24C124.761 174.853 124.494 174.56 124.147 174.36C123.814 174.147 123.414 174.04 122.947 174.04C122.494 174.04 122.094 174.147 121.747 174.36C121.401 174.56 121.127 174.853 120.927 175.24C120.741 175.627 120.647 176.087 120.647 176.62V183H118.387ZM141.646 183.24C140.566 183.24 139.606 182.993 138.766 182.5C137.939 181.993 137.293 181.313 136.826 180.46C136.359 179.593 136.126 178.627 136.126 177.56C136.126 176.467 136.359 175.5 136.826 174.66C137.306 173.82 137.946 173.16 138.746 172.68C139.546 172.187 140.453 171.94 141.466 171.94C142.279 171.94 143.006 172.08 143.646 172.36C144.286 172.64 144.826 173.027 145.266 173.52C145.706 174 146.039 174.553 146.266 175.18C146.506 175.807 146.626 176.473 146.626 177.18C146.626 177.353 146.619 177.533 146.606 177.72C146.593 177.907 146.566 178.08 146.526 178.24H137.906V176.44H145.246L144.166 177.26C144.299 176.607 144.253 176.027 144.026 175.52C143.813 175 143.479 174.593 143.026 174.3C142.586 173.993 142.066 173.84 141.466 173.84C140.866 173.84 140.333 173.993 139.866 174.3C139.399 174.593 139.039 175.02 138.786 175.58C138.533 176.127 138.433 176.793 138.486 177.58C138.419 178.313 138.519 178.953 138.786 179.5C139.066 180.047 139.453 180.473 139.946 180.78C140.453 181.087 141.026 181.24 141.666 181.24C142.319 181.24 142.873 181.093 143.326 180.8C143.793 180.507 144.159 180.127 144.426 179.66L146.266 180.56C146.053 181.067 145.719 181.527 145.266 181.94C144.826 182.34 144.293 182.66 143.666 182.9C143.053 183.127 142.379 183.24 141.646 183.24ZM148.632 183V172.18H150.792V174.3L150.532 174.02C150.798 173.34 151.225 172.827 151.812 172.48C152.398 172.12 153.078 171.94 153.852 171.94C154.652 171.94 155.358 172.113 155.972 172.46C156.585 172.807 157.065 173.287 157.412 173.9C157.758 174.513 157.932 175.22 157.932 176.02V183H155.692V176.62C155.692 176.073 155.592 175.613 155.392 175.24C155.192 174.853 154.905 174.56 154.532 174.36C154.172 174.147 153.758 174.04 153.292 174.04C152.825 174.04 152.405 174.147 152.032 174.36C151.672 174.56 151.392 174.853 151.192 175.24C150.992 175.627 150.892 176.087 150.892 176.62V183H148.632ZM164.83 183.12C163.697 183.12 162.817 182.8 162.19 182.16C161.564 181.52 161.25 180.62 161.25 179.46V174.22H159.35V172.18H159.65C160.157 172.18 160.55 172.033 160.83 171.74C161.11 171.447 161.25 171.047 161.25 170.54V169.7H163.51V172.18H165.97V174.22H163.51V179.36C163.51 179.733 163.57 180.053 163.69 180.32C163.81 180.573 164.004 180.773 164.27 180.92C164.537 181.053 164.884 181.12 165.31 181.12C165.417 181.12 165.537 181.113 165.67 181.1C165.804 181.087 165.93 181.073 166.05 181.06V183C165.864 183.027 165.657 183.053 165.43 183.08C165.204 183.107 165.004 183.12 164.83 183.12ZM172.056 183.24C170.949 183.24 169.976 182.967 169.136 182.42C168.309 181.873 167.729 181.14 167.396 180.22L169.136 179.4C169.429 180.013 169.829 180.5 170.336 180.86C170.856 181.22 171.429 181.4 172.056 181.4C172.589 181.4 173.023 181.28 173.356 181.04C173.689 180.8 173.856 180.473 173.856 180.06C173.856 179.793 173.783 179.58 173.636 179.42C173.489 179.247 173.303 179.107 173.076 179C172.863 178.893 172.643 178.813 172.416 178.76L170.716 178.28C169.783 178.013 169.083 177.613 168.616 177.08C168.163 176.533 167.936 175.9 167.936 175.18C167.936 174.527 168.103 173.96 168.436 173.48C168.769 172.987 169.229 172.607 169.816 172.34C170.403 172.073 171.063 171.94 171.796 171.94C172.783 171.94 173.663 172.187 174.436 172.68C175.209 173.16 175.756 173.833 176.076 174.7L174.336 175.52C174.123 175 173.783 174.587 173.316 174.28C172.863 173.973 172.349 173.82 171.776 173.82C171.283 173.82 170.889 173.94 170.596 174.18C170.303 174.407 170.156 174.707 170.156 175.08C170.156 175.333 170.223 175.547 170.356 175.72C170.489 175.88 170.663 176.013 170.876 176.12C171.089 176.213 171.309 176.293 171.536 176.36L173.296 176.88C174.189 177.133 174.876 177.533 175.356 178.08C175.836 178.613 176.076 179.253 176.076 180C176.076 180.64 175.903 181.207 175.556 181.7C175.223 182.18 174.756 182.56 174.156 182.84C173.556 183.107 172.856 183.24 172.056 183.24Z" fill="#3D4966"/>
<path d="M123.599 57C125.297 56.996 126.64 58.3154 126.644 60.0745L126.648 63.073C137.666 63.9365 144.945 71.4448 144.957 82.959L145 116.662C145.016 129.216 137.129 136.94 124.487 136.96L93.6076 137C81.0448 137.016 73.0593 129.108 73.0435 116.518L73 83.2109C72.9843 71.6207 80.0061 64.1324 91.0247 63.121L91.0208 60.1225C91.0168 58.3633 92.3201 57.04 94.0578 57.04C95.7955 57.036 97.0988 58.3553 97.1027 60.1145L97.1067 62.9131L120.566 62.8811L120.562 60.0825C120.558 58.3234 121.861 57.004 123.599 57ZM125.21 113.768H125.17C123.354 113.812 121.896 115.335 121.936 117.174C121.94 119.013 123.405 120.528 125.222 120.568C127.074 120.564 128.575 119.041 128.571 117.162C128.571 115.283 127.066 113.768 125.21 113.768ZM92.6676 113.772C90.8509 113.852 89.4292 115.375 89.4331 117.214C89.5161 119.053 91.0168 120.492 92.8335 120.408C94.6146 120.328 96.0324 118.805 95.9495 116.966C95.91 115.167 94.4448 113.768 92.6676 113.772ZM108.939 113.752C107.122 113.836 105.704 115.355 105.704 117.194C105.787 119.033 107.288 120.468 109.105 120.388C110.882 120.304 112.304 118.785 112.221 116.942C112.181 115.147 110.716 113.748 108.939 113.752ZM92.6479 99.3788C90.8312 99.4587 89.4134 100.982 89.4173 102.821C89.4963 104.66 91.001 106.099 92.8177 106.015C94.5949 105.935 96.0127 104.412 95.9298 102.573C95.8903 100.774 94.429 99.3748 92.6479 99.3788ZM108.923 99.2388C107.106 99.3188 105.685 100.842 105.689 102.681C105.767 104.52 107.272 105.955 109.089 105.876C110.866 105.792 112.284 104.272 112.205 102.433C112.161 100.634 110.7 99.2348 108.923 99.2388ZM125.194 99.2588C123.377 99.2988 121.956 100.778 121.96 102.617V102.661C121.999 104.5 123.5 105.896 125.321 105.856C127.098 105.812 128.516 104.288 128.476 102.449C128.393 100.69 126.967 99.2548 125.194 99.2588ZM120.573 69.038L97.1146 69.07L97.1185 72.3043C97.1185 74.0275 95.8192 75.3868 94.0815 75.3868C92.3438 75.3908 91.0366 74.0355 91.0366 72.3123L91.0326 69.2339C83.3315 70.0055 79.0701 74.5312 79.082 83.2029L79.0859 84.4463L138.879 84.3663V82.967C138.709 74.3713 134.396 69.8616 126.655 69.1899L126.659 72.2684C126.659 73.9875 125.321 75.3508 123.622 75.3508C121.885 75.3548 120.577 73.9955 120.577 72.2764L120.573 69.038Z" fill="#3D4966"/>
</g>
<defs>
<filter id="filter0_d_1412_4914" x="0" y="0" width="217" height="217" filterUnits="userSpaceOnUse" color-interpolation-filters="sRGB">
<feFlood flood-opacity="0" result="BackgroundImageFix"/>
<feColorMatrix in="SourceAlpha" type="matrix" values="0 0 0 0 0 0 0 0 0 0 0 0 0 0 0 0 0 0 127 0" result="hardAlpha"/>
<feOffset/>
<feGaussianBlur stdDeviation="2"/>
<feComposite in2="hardAlpha" operator="out"/>
<feColorMatrix type="matrix" values="0 0 0 0 0.847059 0 0 0 0 0.890196 0 0 0 0 0.964706 0 0 0 0.39 0"/>
<feBlend mode="normal" in2="BackgroundImageFix" result="effect1_dropShadow_1412_4914"/>
<feBlend mode="normal" in="SourceGraphic" in2="effect1_dropShadow_1412_4914" result="shape"/>
</filter>
</defs>
</svg>
