<svg width="170" height="52" viewBox="0 0 170 52" fill="none" xmlns="http://www.w3.org/2000/svg">
<rect width="170" height="52" rx="12" fill="white"/>
<path d="M17.232 33V21.08H18.752L25.44 30.312L24.72 30.424V21.08H26.592V33H25.072L18.432 23.704L19.12 23.576V33H17.232ZM32.7881 33.192C31.9241 33.192 31.1561 32.9947 30.4841 32.6C29.8228 32.1947 29.3055 31.6507 28.9321 30.968C28.5588 30.2747 28.3721 29.5013 28.3721 28.648C28.3721 27.7733 28.5588 27 28.9321 26.328C29.3161 25.656 29.8281 25.128 30.4681 24.744C31.1081 24.3493 31.8335 24.152 32.6441 24.152C33.2948 24.152 33.8761 24.264 34.3881 24.488C34.9001 24.712 35.3321 25.0213 35.6841 25.416C36.0361 25.8 36.3028 26.2427 36.4841 26.744C36.6761 27.2453 36.7721 27.7787 36.7721 28.344C36.7721 28.4827 36.7668 28.6267 36.7561 28.776C36.7455 28.9253 36.7241 29.064 36.6921 29.192H29.7961V27.752H35.6681L34.8041 28.408C34.9108 27.8853 34.8735 27.4213 34.6921 27.016C34.5215 26.6 34.2548 26.2747 33.8921 26.04C33.5401 25.7947 33.1241 25.672 32.6441 25.672C32.1641 25.672 31.7375 25.7947 31.3641 26.04C30.9908 26.2747 30.7028 26.616 30.5001 27.064C30.2975 27.5013 30.2175 28.0347 30.2601 28.664C30.2068 29.2507 30.2868 29.7627 30.5001 30.2C30.7241 30.6373 31.0335 30.9787 31.4281 31.224C31.8335 31.4693 32.2921 31.592 32.8041 31.592C33.3268 31.592 33.7695 31.4747 34.1321 31.24C34.5055 31.0053 34.7988 30.7013 35.0121 30.328L36.4841 31.048C36.3135 31.4533 36.0468 31.8213 35.6841 32.152C35.3321 32.472 34.9055 32.728 34.4041 32.92C33.9135 33.1013 33.3748 33.192 32.7881 33.192ZM37.3564 33L40.3804 28.664L37.3564 24.344H39.4844L41.9644 27.96H40.9404L43.4204 24.344H45.5484L42.5084 28.664L45.5324 33H43.4044L40.9564 29.368H41.9484L39.4844 33H37.3564ZM50.3669 33.096C49.4602 33.096 48.7562 32.84 48.2549 32.328C47.7535 31.816 47.5029 31.096 47.5029 30.168V25.976H45.9829V24.344H46.2229C46.6282 24.344 46.9429 24.2267 47.1669 23.992C47.3909 23.7573 47.5029 23.4373 47.5029 23.032V22.36H49.3109V24.344H51.2789V25.976H49.3109V30.088C49.3109 30.3867 49.3589 30.6427 49.4549 30.856C49.5509 31.0587 49.7055 31.2187 49.9189 31.336C50.1322 31.4427 50.4095 31.496 50.7509 31.496C50.8362 31.496 50.9322 31.4907 51.0389 31.48C51.1455 31.4693 51.2469 31.4587 51.3429 31.448V33C51.1935 33.0213 51.0282 33.0427 50.8469 33.064C50.6655 33.0853 50.5055 33.096 50.3669 33.096ZM61.3121 33.192C60.4695 33.192 59.6855 33.0373 58.9601 32.728C58.2455 32.4187 57.6215 31.992 57.0881 31.448C56.5655 30.8933 56.1548 30.2427 55.8561 29.496C55.5575 28.7493 55.4081 27.928 55.4081 27.032C55.4081 26.1467 55.5521 25.3307 55.8401 24.584C56.1388 23.8267 56.5548 23.176 57.0881 22.632C57.6215 22.0773 58.2455 21.6507 58.9601 21.352C59.6748 21.0427 60.4588 20.888 61.3121 20.888C62.1548 20.888 62.9068 21.032 63.5681 21.32C64.2401 21.608 64.8055 21.9867 65.2641 22.456C65.7228 22.9147 66.0535 23.416 66.2561 23.96L64.5601 24.76C64.3041 24.12 63.8935 23.6027 63.3281 23.208C62.7735 22.8027 62.1015 22.6 61.3121 22.6C60.5228 22.6 59.8241 22.7867 59.2161 23.16C58.6081 23.5333 58.1335 24.0507 57.7921 24.712C57.4615 25.3733 57.2961 26.1467 57.2961 27.032C57.2961 27.9173 57.4615 28.696 57.7921 29.368C58.1335 30.0293 58.6081 30.5467 59.2161 30.92C59.8241 31.2827 60.5228 31.464 61.3121 31.464C62.1015 31.464 62.7735 31.2667 63.3281 30.872C63.8935 30.4773 64.3041 29.96 64.5601 29.32L66.2561 30.12C66.0535 30.6533 65.7228 31.1547 65.2641 31.624C64.8055 32.0933 64.2401 32.472 63.5681 32.76C62.9068 33.048 62.1548 33.192 61.3121 33.192ZM67.8616 33V20.888H69.6696V26.04L69.3816 25.816C69.595 25.272 69.9363 24.8613 70.4056 24.584C70.875 24.296 71.419 24.152 72.0376 24.152C72.6776 24.152 73.243 24.2907 73.7336 24.568C74.2243 24.8453 74.6083 25.2293 74.8856 25.72C75.163 26.2107 75.3016 26.7707 75.3016 27.4V33H73.5096V27.896C73.5096 27.4587 73.4243 27.0907 73.2536 26.792C73.0936 26.4827 72.8696 26.248 72.5816 26.088C72.2936 25.9173 71.963 25.832 71.5896 25.832C71.227 25.832 70.8963 25.9173 70.5976 26.088C70.3096 26.248 70.0803 26.4827 69.9096 26.792C69.7496 27.1013 69.6696 27.4693 69.6696 27.896V33H67.8616ZM81.1406 33.192C80.2766 33.192 79.5086 32.9947 78.8366 32.6C78.1753 32.1947 77.658 31.6507 77.2846 30.968C76.9113 30.2747 76.7246 29.5013 76.7246 28.648C76.7246 27.7733 76.9113 27 77.2846 26.328C77.6686 25.656 78.1806 25.128 78.8206 24.744C79.4606 24.3493 80.186 24.152 80.9966 24.152C81.6473 24.152 82.2286 24.264 82.7406 24.488C83.2526 24.712 83.6846 25.0213 84.0366 25.416C84.3886 25.8 84.6553 26.2427 84.8366 26.744C85.0286 27.2453 85.1246 27.7787 85.1246 28.344C85.1246 28.4827 85.1193 28.6267 85.1086 28.776C85.098 28.9253 85.0766 29.064 85.0446 29.192H78.1486V27.752H84.0206L83.1566 28.408C83.2633 27.8853 83.226 27.4213 83.0446 27.016C82.874 26.6 82.6073 26.2747 82.2446 26.04C81.8926 25.7947 81.4766 25.672 80.9966 25.672C80.5166 25.672 80.09 25.7947 79.7166 26.04C79.3433 26.2747 79.0553 26.616 78.8526 27.064C78.65 27.5013 78.57 28.0347 78.6126 28.664C78.5593 29.2507 78.6393 29.7627 78.8526 30.2C79.0766 30.6373 79.386 30.9787 79.7806 31.224C80.186 31.4693 80.6446 31.592 81.1566 31.592C81.6793 31.592 82.122 31.4747 82.4846 31.24C82.858 31.0053 83.1513 30.7013 83.3646 30.328L84.8366 31.048C84.666 31.4533 84.3993 31.8213 84.0366 32.152C83.6846 32.472 83.258 32.728 82.7566 32.92C82.266 33.1013 81.7273 33.192 81.1406 33.192ZM90.8411 33.192C89.9771 33.192 89.2091 32.9947 88.5371 32.6C87.8758 32.1947 87.3478 31.6507 86.9531 30.968C86.5691 30.2853 86.3771 29.512 86.3771 28.648C86.3771 27.7947 86.5691 27.0267 86.9531 26.344C87.3371 25.6613 87.8651 25.128 88.5371 24.744C89.2091 24.3493 89.9771 24.152 90.8411 24.152C91.4278 24.152 91.9771 24.2587 92.4891 24.472C93.0011 24.6747 93.4438 24.9573 93.8171 25.32C94.2011 25.6827 94.4838 26.104 94.6651 26.584L93.0811 27.32C92.8998 26.872 92.6065 26.5147 92.2011 26.248C91.8065 25.9707 91.3531 25.832 90.8411 25.832C90.3505 25.832 89.9078 25.9547 89.5131 26.2C89.1291 26.4347 88.8251 26.7707 88.6011 27.208C88.3771 27.6347 88.2651 28.12 88.2651 28.664C88.2651 29.208 88.3771 29.6987 88.6011 30.136C88.8251 30.5627 89.1291 30.8987 89.5131 31.144C89.9078 31.3893 90.3505 31.512 90.8411 31.512C91.3638 31.512 91.8171 31.3787 92.2011 31.112C92.5958 30.8347 92.8891 30.4667 93.0811 30.008L94.6651 30.76C94.4945 31.2187 94.2171 31.6347 93.8331 32.008C93.4598 32.3707 93.0171 32.6587 92.5051 32.872C91.9931 33.0853 91.4385 33.192 90.8411 33.192ZM96.2722 33V20.888H98.0802V29L97.3762 28.824L101.712 24.344H103.968L100.704 27.816L104.112 33H102.032L98.9922 28.408L100.064 28.264L97.5042 30.984L98.0802 29.784V33H96.2722ZM108.278 33.192C107.628 33.192 107.057 33.048 106.566 32.76C106.076 32.4613 105.692 32.0507 105.414 31.528C105.148 30.9947 105.014 30.3813 105.014 29.688V24.344H106.822V29.528C106.822 29.9227 106.902 30.2693 107.062 30.568C107.222 30.8667 107.446 31.1013 107.734 31.272C108.022 31.432 108.353 31.512 108.726 31.512C109.11 31.512 109.446 31.4267 109.734 31.256C110.022 31.0853 110.246 30.8453 110.406 30.536C110.577 30.2267 110.662 29.864 110.662 29.448V24.344H112.454V33H110.742V31.304L110.934 31.528C110.732 32.0613 110.396 32.472 109.926 32.76C109.457 33.048 108.908 33.192 108.278 33.192ZM114.405 36.2V24.344H116.133V26.136L115.925 25.72C116.245 25.2293 116.672 24.8453 117.205 24.568C117.739 24.2907 118.347 24.152 119.029 24.152C119.851 24.152 120.587 24.3493 121.237 24.744C121.899 25.1387 122.416 25.6773 122.789 26.36C123.173 27.0427 123.365 27.8107 123.365 28.664C123.365 29.5173 123.173 30.2853 122.789 30.968C122.416 31.6507 121.904 32.1947 121.253 32.6C120.603 32.9947 119.861 33.192 119.029 33.192C118.357 33.192 117.744 33.0533 117.189 32.776C116.645 32.4987 116.224 32.0987 115.925 31.576L116.213 31.24V36.2H114.405ZM118.853 31.512C119.365 31.512 119.819 31.3893 120.213 31.144C120.608 30.8987 120.917 30.5627 121.141 30.136C121.376 29.6987 121.493 29.208 121.493 28.664C121.493 28.12 121.376 27.6347 121.141 27.208C120.917 26.7813 120.608 26.4453 120.213 26.2C119.819 25.9547 119.365 25.832 118.853 25.832C118.352 25.832 117.899 25.9547 117.493 26.2C117.099 26.4453 116.784 26.7813 116.549 27.208C116.325 27.6347 116.213 28.12 116.213 28.664C116.213 29.208 116.325 29.6987 116.549 30.136C116.784 30.5627 117.099 30.8987 117.493 31.144C117.899 31.3893 118.352 31.512 118.853 31.512Z" fill="#3D4966"/>
<path d="M152.583 18.3846H150.458V17.6923C150.458 17.5087 150.384 17.3326 150.251 17.2028C150.118 17.0729 149.938 17 149.75 17C149.562 17 149.382 17.0729 149.249 17.2028C149.116 17.3326 149.042 17.5087 149.042 17.6923V18.3846H141.958V17.6923C141.958 17.5087 141.884 17.3326 141.751 17.2028C141.618 17.0729 141.438 17 141.25 17C141.062 17 140.882 17.0729 140.749 17.2028C140.616 17.3326 140.542 17.5087 140.542 17.6923V18.3846H138.417C138.041 18.3846 137.681 18.5305 137.415 18.7902C137.149 19.0498 137 19.402 137 19.7692V33.6154C137 33.9826 137.149 34.3348 137.415 34.5945C137.681 34.8541 138.041 35 138.417 35H152.583C152.959 35 153.319 34.8541 153.585 34.5945C153.851 34.3348 154 33.9826 154 33.6154V19.7692C154 19.402 153.851 19.0498 153.585 18.7902C153.319 18.5305 152.959 18.3846 152.583 18.3846ZM140.542 19.7692V20.4615C140.542 20.6451 140.616 20.8212 140.749 20.9511C140.882 21.0809 141.062 21.1538 141.25 21.1538C141.438 21.1538 141.618 21.0809 141.751 20.9511C141.884 20.8212 141.958 20.6451 141.958 20.4615V19.7692H149.042V20.4615C149.042 20.6451 149.116 20.8212 149.249 20.9511C149.382 21.0809 149.562 21.1538 149.75 21.1538C149.938 21.1538 150.118 21.0809 150.251 20.9511C150.384 20.8212 150.458 20.6451 150.458 20.4615V19.7692H152.583V22.5385H138.417V19.7692H140.542ZM152.583 33.6154H138.417V23.9231H152.583V33.6154Z" fill="#242E49"/>
</svg>
