<svg width="106" height="31" viewBox="0 0 106 31" fill="none" xmlns="http://www.w3.org/2000/svg">
<rect x="0.75" y="0.75" width="104.5" height="29.5" rx="14.75" fill="#F2F5F9" stroke="#3D4966" stroke-width="1.5"/>
<circle cx="17.5" cy="15.5" r="6.5" fill="#FF2626"/>
<path d="M35.936 22.168C35.1987 22.168 34.5127 22.0327 33.878 21.762C33.2527 21.4913 32.7067 21.118 32.24 20.642C31.7827 20.1567 31.4233 19.5873 31.162 18.934C30.9007 18.2807 30.77 17.562 30.77 16.778C30.77 16.0033 30.896 15.2893 31.148 14.636C31.4093 13.9733 31.7733 13.404 32.24 12.928C32.7067 12.4427 33.2527 12.0693 33.878 11.808C34.5033 11.5373 35.1893 11.402 35.936 11.402C36.6733 11.402 37.3313 11.528 37.91 11.78C38.498 12.032 38.9927 12.3633 39.394 12.774C39.7953 13.1753 40.0847 13.614 40.262 14.09L38.778 14.79C38.554 14.23 38.1947 13.7773 37.7 13.432C37.2147 13.0773 36.6267 12.9 35.936 12.9C35.2453 12.9 34.634 13.0633 34.102 13.39C33.57 13.7167 33.1547 14.1693 32.856 14.748C32.5667 15.3267 32.422 16.0033 32.422 16.778C32.422 17.5527 32.5667 18.234 32.856 18.822C33.1547 19.4007 33.57 19.8533 34.102 20.18C34.634 20.4973 35.2453 20.656 35.936 20.656C36.6267 20.656 37.2147 20.4833 37.7 20.138C38.1947 19.7927 38.554 19.34 38.778 18.78L40.262 19.48C40.0847 19.9467 39.7953 20.3853 39.394 20.796C38.9927 21.2067 38.498 21.538 37.91 21.79C37.3313 22.042 36.6733 22.168 35.936 22.168ZM46.8888 22.168C46.1328 22.168 45.4281 22.0327 44.7748 21.762C44.1308 21.4913 43.5615 21.1133 43.0668 20.628C42.5815 20.1427 42.1988 19.5733 41.9188 18.92C41.6481 18.2667 41.5128 17.5527 41.5128 16.778C41.5128 16.0033 41.6481 15.2893 41.9188 14.636C42.1988 13.9733 42.5815 13.404 43.0668 12.928C43.5521 12.4427 44.1215 12.0693 44.7748 11.808C45.4281 11.5373 46.1328 11.402 46.8888 11.402C47.6541 11.402 48.3588 11.5373 49.0028 11.808C49.6561 12.0693 50.2255 12.4427 50.7108 12.928C51.2055 13.4133 51.5881 13.9827 51.8588 14.636C52.1295 15.2893 52.2648 16.0033 52.2648 16.778C52.2648 17.5527 52.1248 18.2667 51.8448 18.92C51.5741 19.5733 51.1961 20.1427 50.7108 20.628C50.2255 21.1133 49.6561 21.4913 49.0028 21.762C48.3495 22.0327 47.6448 22.168 46.8888 22.168ZM46.8888 20.656C47.4301 20.656 47.9248 20.558 48.3728 20.362C48.8301 20.166 49.2268 19.8953 49.5628 19.55C49.8988 19.1953 50.1601 18.7847 50.3468 18.318C50.5335 17.842 50.6268 17.3287 50.6268 16.778C50.6268 16.2273 50.5335 15.7187 50.3468 15.252C50.1601 14.7853 49.8988 14.3747 49.5628 14.02C49.2268 13.6653 48.8301 13.39 48.3728 13.194C47.9248 12.998 47.4301 12.9 46.8888 12.9C46.3475 12.9 45.8481 12.998 45.3908 13.194C44.9428 13.39 44.5508 13.6653 44.2148 14.02C43.8788 14.3747 43.6175 14.7853 43.4308 15.252C43.2535 15.7187 43.1648 16.2273 43.1648 16.778C43.1648 17.3287 43.2535 17.842 43.4308 18.318C43.6175 18.7847 43.8788 19.1953 44.2148 19.55C44.5508 19.8953 44.9475 20.166 45.4048 20.362C45.8621 20.558 46.3568 20.656 46.8888 20.656ZM56.4704 22L52.7744 11.57H54.5524L57.5764 20.474H57.2264L60.2364 11.57H62.0144L58.3184 22H56.4704ZM63.1014 22V11.57H64.7534V22H63.1014ZM66.7758 22V11.57H70.1918C71.2745 11.57 72.2125 11.7893 73.0058 12.228C73.8085 12.6573 74.4291 13.264 74.8678 14.048C75.3065 14.832 75.5258 15.742 75.5258 16.778C75.5258 17.8047 75.3065 18.7147 74.8678 19.508C74.4291 20.292 73.8085 20.9033 73.0058 21.342C72.2125 21.7807 71.2745 22 70.1918 22H66.7758ZM68.4278 20.53H70.2198C70.9571 20.53 71.5965 20.376 72.1378 20.068C72.6885 19.76 73.1131 19.326 73.4118 18.766C73.7105 18.206 73.8598 17.5433 73.8598 16.778C73.8598 16.0127 73.7058 15.3547 73.3978 14.804C73.0991 14.244 72.6791 13.81 72.1378 13.502C71.5965 13.194 70.9571 13.04 70.2198 13.04H68.4278V20.53ZM77.0968 18.906V17.506H82.6968V18.906H77.0968ZM86.1885 22V12.97H84.1865V11.57H87.8265V22H86.1885ZM90.6209 22L94.1909 17.38L94.4709 17.562C94.3402 17.702 94.1955 17.814 94.0369 17.898C93.8875 17.982 93.7242 18.0427 93.5469 18.08C93.3789 18.1173 93.1969 18.136 93.0009 18.136C92.3755 18.136 91.8155 17.996 91.3209 17.716C90.8262 17.4267 90.4342 17.0347 90.1449 16.54C89.8649 16.036 89.7249 15.4667 89.7249 14.832C89.7249 14.1693 89.8789 13.5813 90.1869 13.068C90.4949 12.5547 90.9149 12.1487 91.4469 11.85C91.9789 11.5513 92.5855 11.402 93.2669 11.402C93.9575 11.402 94.5642 11.5513 95.0869 11.85C95.6189 12.1487 96.0342 12.5593 96.3329 13.082C96.6409 13.5953 96.7949 14.1833 96.7949 14.846C96.7949 15.2007 96.7575 15.5507 96.6829 15.896C96.6082 16.2413 96.4775 16.6007 96.2909 16.974C96.1042 17.338 95.8429 17.7393 95.5069 18.178L92.5949 22H90.6209ZM93.2669 16.75C93.6309 16.75 93.9529 16.666 94.2329 16.498C94.5129 16.33 94.7369 16.1013 94.9049 15.812C95.0729 15.5227 95.1569 15.1913 95.1569 14.818C95.1569 14.4353 95.0729 14.0993 94.9049 13.81C94.7369 13.5113 94.5082 13.2827 94.2189 13.124C93.9389 12.956 93.6215 12.872 93.2669 12.872C92.9122 12.872 92.5902 12.956 92.3009 13.124C92.0209 13.2827 91.7969 13.5113 91.6289 13.81C91.4609 14.0993 91.3769 14.4353 91.3769 14.818C91.3769 15.1913 91.4562 15.5227 91.6149 15.812C91.7829 16.1013 92.0115 16.33 92.3009 16.498C92.5902 16.666 92.9122 16.75 93.2669 16.75Z" fill="#3D4966"/>
</svg>
