<svg width="61" height="18" viewBox="0 0 61 18" fill="none" xmlns="http://www.w3.org/2000/svg">
<circle cx="6.5" cy="8.5" r="6.5" fill="#44FF26"/>
<path d="M27.964 15.168C27.2267 15.168 26.5407 15.0327 25.906 14.762C25.2807 14.4913 24.73 14.118 24.254 13.642C23.7873 13.1567 23.4233 12.5873 23.162 11.934C22.9007 11.2807 22.77 10.562 22.77 9.778C22.77 9.00333 22.896 8.28933 23.148 7.636C23.4093 6.97333 23.7733 6.404 24.24 5.928C24.7067 5.44267 25.2527 5.06933 25.878 4.808C26.5033 4.53733 27.1893 4.402 27.936 4.402C28.6733 4.402 29.3313 4.528 29.91 4.78C30.498 5.032 30.9927 5.36333 31.394 5.774C31.7953 6.17533 32.0847 6.614 32.262 7.09L30.792 7.804C30.5773 7.23467 30.2227 6.77733 29.728 6.432C29.2333 6.07733 28.636 5.9 27.936 5.9C27.2453 5.9 26.634 6.06333 26.102 6.39C25.57 6.71667 25.1547 7.16933 24.856 7.748C24.5667 8.32667 24.422 9.00333 24.422 9.778C24.422 10.5527 24.5713 11.234 24.87 11.822C25.178 12.4007 25.598 12.8533 26.13 13.18C26.662 13.4973 27.2733 13.656 27.964 13.656C28.5427 13.656 29.07 13.5393 29.546 13.306C30.0313 13.0633 30.4187 12.7273 30.708 12.298C30.9973 11.8593 31.142 11.3507 31.142 10.772V10.058L31.884 10.73H27.936V9.33H32.78V10.31C32.78 11.0753 32.6493 11.7613 32.388 12.368C32.1267 12.9653 31.772 13.474 31.324 13.894C30.876 14.314 30.3627 14.6313 29.784 14.846C29.2053 15.0607 28.5987 15.168 27.964 15.168ZM37.8267 15.168C37.0987 15.168 36.4313 14.9953 35.8247 14.65C35.2273 14.3047 34.7513 13.8333 34.3967 13.236C34.042 12.6387 33.8647 11.962 33.8647 11.206C33.8647 10.4407 34.042 9.764 34.3967 9.176C34.7513 8.57867 35.2273 8.112 35.8247 7.776C36.422 7.43067 37.0893 7.258 37.8267 7.258C38.5733 7.258 39.2407 7.43067 39.8287 7.776C40.426 8.112 40.8973 8.57867 41.2427 9.176C41.5973 9.764 41.7747 10.4407 41.7747 11.206C41.7747 11.9713 41.5973 12.6527 41.2427 13.25C40.888 13.8473 40.412 14.3187 39.8147 14.664C39.2173 15 38.5547 15.168 37.8267 15.168ZM37.8267 13.698C38.2747 13.698 38.6713 13.5907 39.0167 13.376C39.362 13.1613 39.6327 12.8673 39.8287 12.494C40.034 12.1113 40.1367 11.682 40.1367 11.206C40.1367 10.73 40.034 10.3053 39.8287 9.932C39.6327 9.55867 39.362 9.26467 39.0167 9.05C38.6713 8.83533 38.2747 8.728 37.8267 8.728C37.388 8.728 36.9913 8.83533 36.6367 9.05C36.2913 9.26467 36.016 9.55867 35.8107 9.932C35.6147 10.3053 35.5167 10.73 35.5167 11.206C35.5167 11.682 35.6147 12.1113 35.8107 12.494C36.016 12.8673 36.2913 13.1613 36.6367 13.376C36.9913 13.5907 37.388 13.698 37.8267 13.698ZM46.8332 15.168C46.1052 15.168 45.4378 14.9953 44.8312 14.65C44.2338 14.3047 43.7578 13.8333 43.4032 13.236C43.0485 12.6387 42.8712 11.962 42.8712 11.206C42.8712 10.4407 43.0485 9.764 43.4032 9.176C43.7578 8.57867 44.2338 8.112 44.8312 7.776C45.4285 7.43067 46.0958 7.258 46.8332 7.258C47.5798 7.258 48.2472 7.43067 48.8352 7.776C49.4325 8.112 49.9038 8.57867 50.2492 9.176C50.6038 9.764 50.7812 10.4407 50.7812 11.206C50.7812 11.9713 50.6038 12.6527 50.2492 13.25C49.8945 13.8473 49.4185 14.3187 48.8212 14.664C48.2238 15 47.5612 15.168 46.8332 15.168ZM46.8332 13.698C47.2812 13.698 47.6778 13.5907 48.0232 13.376C48.3685 13.1613 48.6392 12.8673 48.8352 12.494C49.0405 12.1113 49.1432 11.682 49.1432 11.206C49.1432 10.73 49.0405 10.3053 48.8352 9.932C48.6392 9.55867 48.3685 9.26467 48.0232 9.05C47.6778 8.83533 47.2812 8.728 46.8332 8.728C46.3945 8.728 45.9978 8.83533 45.6432 9.05C45.2978 9.26467 45.0225 9.55867 44.8172 9.932C44.6212 10.3053 44.5232 10.73 44.5232 11.206C44.5232 11.682 44.6212 12.1113 44.8172 12.494C45.0225 12.8673 45.2978 13.1613 45.6432 13.376C45.9978 13.5907 46.3945 13.698 46.8332 13.698ZM55.6856 15.168C54.9576 15.168 54.3043 14.9953 53.7256 14.65C53.1563 14.2953 52.7036 13.8193 52.3676 13.222C52.041 12.6247 51.8776 11.9527 51.8776 11.206C51.8776 10.4593 52.0456 9.78733 52.3816 9.19C52.7176 8.59267 53.1703 8.12133 53.7396 7.776C54.309 7.43067 54.953 7.258 55.6716 7.258C56.2783 7.258 56.815 7.37933 57.2816 7.622C57.7483 7.86467 58.117 8.20067 58.3876 8.63L58.1496 8.994V4.402H59.7176V15H58.2196V13.46L58.4016 13.754C58.1403 14.2113 57.767 14.5613 57.2816 14.804C56.7963 15.0467 56.2643 15.168 55.6856 15.168ZM55.8396 13.698C56.2783 13.698 56.6703 13.5907 57.0156 13.376C57.3703 13.1613 57.6456 12.8673 57.8416 12.494C58.047 12.1113 58.1496 11.682 58.1496 11.206C58.1496 10.73 58.047 10.3053 57.8416 9.932C57.6456 9.55867 57.3703 9.26467 57.0156 9.05C56.6703 8.83533 56.2783 8.728 55.8396 8.728C55.401 8.728 55.0043 8.83533 54.6496 9.05C54.295 9.26467 54.0196 9.55867 53.8236 9.932C53.6276 10.3053 53.5296 10.73 53.5296 11.206C53.5296 11.682 53.6276 12.1113 53.8236 12.494C54.0196 12.8673 54.2903 13.1613 54.6356 13.376C54.9903 13.5907 55.3916 13.698 55.8396 13.698Z" fill="#818BA0"/>
</svg>
