<svg width="217" height="217" viewBox="0 0 217 217" fill="none" xmlns="http://www.w3.org/2000/svg">
<g filter="url(#filter0_d_1412_4906)">
<rect x="4" y="4" width="209" height="209" rx="15" fill="white"/>
<path d="M75.9232 184V169.1H78.2832V175.66H85.1832V169.1H87.5232V184H85.1832V177.76H78.2832V184H75.9232ZM90.1907 184V173.18H92.4507V184H90.1907ZM90.1907 171.7V169.1H92.4507V171.7H90.1907ZM98.893 184.24C97.7864 184.24 96.813 183.967 95.973 183.42C95.1464 182.873 94.5664 182.14 94.233 181.22L95.973 180.4C96.2664 181.013 96.6664 181.5 97.173 181.86C97.693 182.22 98.2664 182.4 98.893 182.4C99.4264 182.4 99.8597 182.28 100.193 182.04C100.526 181.8 100.693 181.473 100.693 181.06C100.693 180.793 100.62 180.58 100.473 180.42C100.326 180.247 100.14 180.107 99.913 180C99.6997 179.893 99.4797 179.813 99.253 179.76L97.553 179.28C96.6197 179.013 95.9197 178.613 95.453 178.08C94.9997 177.533 94.773 176.9 94.773 176.18C94.773 175.527 94.9397 174.96 95.273 174.48C95.6064 173.987 96.0664 173.607 96.653 173.34C97.2397 173.073 97.8997 172.94 98.633 172.94C99.6197 172.94 100.5 173.187 101.273 173.68C102.046 174.16 102.593 174.833 102.913 175.7L101.173 176.52C100.96 176 100.62 175.587 100.153 175.28C99.6997 174.973 99.1864 174.82 98.613 174.82C98.1197 174.82 97.7264 174.94 97.433 175.18C97.1397 175.407 96.993 175.707 96.993 176.08C96.993 176.333 97.0597 176.547 97.193 176.72C97.3264 176.88 97.4997 177.013 97.713 177.12C97.9264 177.213 98.1464 177.293 98.373 177.36L100.133 177.88C101.026 178.133 101.713 178.533 102.193 179.08C102.673 179.613 102.913 180.253 102.913 181C102.913 181.64 102.74 182.207 102.393 182.7C102.06 183.18 101.593 183.56 100.993 183.84C100.393 184.107 99.693 184.24 98.893 184.24ZM109.607 184.12C108.474 184.12 107.594 183.8 106.967 183.16C106.341 182.52 106.027 181.62 106.027 180.46V175.22H104.127V173.18H104.427C104.934 173.18 105.327 173.033 105.607 172.74C105.887 172.447 106.027 172.047 106.027 171.54V170.7H108.287V173.18H110.747V175.22H108.287V180.36C108.287 180.733 108.347 181.053 108.467 181.32C108.587 181.573 108.781 181.773 109.047 181.92C109.314 182.053 109.661 182.12 110.087 182.12C110.194 182.12 110.314 182.113 110.447 182.1C110.581 182.087 110.707 182.073 110.827 182.06V184C110.641 184.027 110.434 184.053 110.207 184.08C109.981 184.107 109.781 184.12 109.607 184.12ZM117.858 184.24C116.818 184.24 115.864 183.993 114.998 183.5C114.144 183.007 113.464 182.333 112.958 181.48C112.451 180.627 112.198 179.66 112.198 178.58C112.198 177.487 112.451 176.52 112.958 175.68C113.464 174.827 114.144 174.16 114.998 173.68C115.851 173.187 116.804 172.94 117.858 172.94C118.924 172.94 119.878 173.187 120.718 173.68C121.571 174.16 122.244 174.827 122.738 175.68C123.244 176.52 123.498 177.487 123.498 178.58C123.498 179.673 123.244 180.647 122.738 181.5C122.231 182.353 121.551 183.027 120.698 183.52C119.844 184 118.898 184.24 117.858 184.24ZM117.858 182.14C118.498 182.14 119.064 181.987 119.558 181.68C120.051 181.373 120.438 180.953 120.718 180.42C121.011 179.873 121.158 179.26 121.158 178.58C121.158 177.9 121.011 177.293 120.718 176.76C120.438 176.227 120.051 175.807 119.558 175.5C119.064 175.193 118.498 175.04 117.858 175.04C117.231 175.04 116.664 175.193 116.158 175.5C115.664 175.807 115.271 176.227 114.978 176.76C114.698 177.293 114.558 177.9 114.558 178.58C114.558 179.26 114.698 179.873 114.978 180.42C115.271 180.953 115.664 181.373 116.158 181.68C116.664 181.987 117.231 182.14 117.858 182.14ZM125.504 184V173.18H127.664V175.36L127.464 175.04C127.704 174.333 128.091 173.827 128.624 173.52C129.157 173.2 129.797 173.04 130.544 173.04H131.204V175.1H130.264C129.517 175.1 128.911 175.333 128.444 175.8C127.991 176.253 127.764 176.907 127.764 177.76V184H125.504ZM133.51 188.42C133.243 188.42 132.977 188.393 132.71 188.34C132.457 188.3 132.223 188.233 132.01 188.14V186.2C132.17 186.24 132.363 186.273 132.59 186.3C132.817 186.34 133.037 186.36 133.25 186.36C133.877 186.36 134.337 186.22 134.63 185.94C134.937 185.673 135.21 185.253 135.45 184.68L136.17 183.04L136.13 184.94L131.45 173.18H133.87L137.33 182.2H136.51L139.95 173.18H142.39L137.61 185.18C137.357 185.82 137.037 186.38 136.65 186.86C136.277 187.353 135.83 187.733 135.31 188C134.803 188.28 134.203 188.42 133.51 188.42Z" fill="#3D4966"/>
<path d="M109 58C131.12 58 149 75.92 149 98C149 120.12 131.12 138 109 138C86.92 138 69 120.12 69 98C69 75.92 86.92 58 109 58ZM107.6 77.72C105.96 77.72 104.6 79.04 104.6 80.72V100.92C104.6 101.96 105.16 102.92 106.08 103.48L121.76 112.84C122.24 113.12 122.76 113.28 123.32 113.28C124.32 113.28 125.32 112.76 125.88 111.8C126.72 110.4 126.28 108.56 124.84 107.68L110.6 99.2V80.72C110.6 79.04 109.24 77.72 107.6 77.72Z" fill="#3D4966"/>
</g>
<defs>
<filter id="filter0_d_1412_4906" x="0" y="0" width="217" height="217" filterUnits="userSpaceOnUse" color-interpolation-filters="sRGB">
<feFlood flood-opacity="0" result="BackgroundImageFix"/>
<feColorMatrix in="SourceAlpha" type="matrix" values="0 0 0 0 0 0 0 0 0 0 0 0 0 0 0 0 0 0 127 0" result="hardAlpha"/>
<feOffset/>
<feGaussianBlur stdDeviation="2"/>
<feComposite in2="hardAlpha" operator="out"/>
<feColorMatrix type="matrix" values="0 0 0 0 0.847059 0 0 0 0 0.890196 0 0 0 0 0.964706 0 0 0 0.39 0"/>
<feBlend mode="normal" in2="BackgroundImageFix" result="effect1_dropShadow_1412_4906"/>
<feBlend mode="normal" in="SourceGraphic" in2="effect1_dropShadow_1412_4906" result="shape"/>
</filter>
</defs>
</svg>
