<svg width="142" height="142" viewBox="0 0 142 142" fill="none" xmlns="http://www.w3.org/2000/svg">
<rect width="142" height="142" rx="12" fill="#BEC5D2"/>
<path d="M111.535 105.193C105.537 94.8035 96.2931 87.3537 85.5055 83.8222C90.8415 80.6397 94.9873 75.7903 97.3061 70.0187C99.625 64.2472 99.9886 57.8726 98.3413 51.8739C96.6941 45.8752 93.1269 40.5842 88.1875 36.8132C83.2482 33.0423 77.21 31 71 31C64.79 31 58.7518 33.0423 53.8125 36.8132C48.8732 40.5842 45.306 45.8752 43.6587 51.8739C42.0114 57.8726 42.375 64.2472 44.6939 70.0187C47.0127 75.7903 51.1585 80.6397 56.4945 83.8222C45.7069 87.3498 36.4632 94.7996 30.4649 105.193C30.2449 105.552 30.099 105.952 30.0358 106.369C29.9726 106.786 29.9933 107.211 30.0967 107.619C30.2002 108.028 30.3843 108.412 30.6381 108.748C30.892 109.084 31.2105 109.366 31.5749 109.577C31.9392 109.788 32.342 109.923 32.7595 109.976C33.177 110.028 33.6007 109.996 34.0057 109.882C34.4107 109.767 34.7887 109.573 35.1174 109.31C35.4461 109.047 35.7189 108.72 35.9197 108.35C43.3399 95.5019 56.4551 87.8312 71 87.8312C85.5449 87.8312 98.6601 95.5019 106.08 108.35C106.281 108.72 106.554 109.047 106.883 109.31C107.211 109.573 107.589 109.767 107.994 109.882C108.399 109.996 108.823 110.028 109.241 109.976C109.658 109.923 110.061 109.788 110.425 109.577C110.789 109.366 111.108 109.084 111.362 108.748C111.616 108.412 111.8 108.028 111.903 107.619C112.007 107.211 112.027 106.786 111.964 106.369C111.901 105.952 111.755 105.552 111.535 105.193ZM48.9444 59.421C48.9444 55.0506 50.2379 50.7784 52.6614 47.1446C55.0849 43.5108 58.5295 40.6786 62.5597 39.0061C66.5898 37.3337 71.0245 36.8961 75.3028 37.7487C79.5812 38.6013 83.5112 40.7058 86.5957 43.7961C89.6802 46.8864 91.7808 50.8237 92.6318 55.1101C93.4829 59.3964 93.0461 63.8394 91.3768 67.8771C89.7074 71.9147 86.8805 75.3658 83.2535 77.7938C79.6264 80.2218 75.3622 81.5178 71 81.5178C65.1524 81.5115 59.5461 79.1815 55.4112 75.0389C51.2763 70.8963 48.9506 65.2795 48.9444 59.421Z" fill="#141B31"/>
</svg>
