<svg width="217" height="217" viewBox="0 0 217 217" fill="none" xmlns="http://www.w3.org/2000/svg">
<g filter="url(#filter0_d_1412_4922)">
<rect x="4" y="4" width="209" height="209" rx="15" fill="white"/>
<path d="M83.4673 185V170.1H85.8273V185H83.4673ZM88.4966 185V174.18H90.6566V176.3L90.3966 176.02C90.6632 175.34 91.0899 174.827 91.6766 174.48C92.2632 174.12 92.9432 173.94 93.7166 173.94C94.5166 173.94 95.2232 174.113 95.8366 174.46C96.4499 174.807 96.9299 175.287 97.2766 175.9C97.6232 176.513 97.7966 177.22 97.7966 178.02V185H95.5566V178.62C95.5566 178.073 95.4566 177.613 95.2566 177.24C95.0566 176.853 94.7699 176.56 94.3966 176.36C94.0366 176.147 93.6232 176.04 93.1566 176.04C92.6899 176.04 92.2699 176.147 91.8966 176.36C91.5366 176.56 91.2566 176.853 91.0566 177.24C90.8566 177.627 90.7566 178.087 90.7566 178.62V185H88.4966ZM105.795 185.24C104.955 185.24 104.189 185.067 103.495 184.72C102.815 184.373 102.289 183.873 101.915 183.22L102.175 182.8V185H100.015V169.86H102.275V176.42L101.915 175.9C102.315 175.287 102.849 174.807 103.515 174.46C104.182 174.113 104.942 173.94 105.795 173.94C106.822 173.94 107.742 174.187 108.555 174.68C109.382 175.173 110.029 175.847 110.495 176.7C110.975 177.553 111.215 178.513 111.215 179.58C111.215 180.647 110.975 181.607 110.495 182.46C110.029 183.313 109.389 183.993 108.575 184.5C107.762 184.993 106.835 185.24 105.795 185.24ZM105.575 183.14C106.215 183.14 106.782 182.987 107.275 182.68C107.769 182.373 108.155 181.953 108.435 181.42C108.729 180.873 108.875 180.26 108.875 179.58C108.875 178.9 108.729 178.293 108.435 177.76C108.155 177.227 107.769 176.807 107.275 176.5C106.782 176.193 106.215 176.04 105.575 176.04C104.949 176.04 104.382 176.193 103.875 176.5C103.382 176.807 102.989 177.227 102.695 177.76C102.415 178.293 102.275 178.9 102.275 179.58C102.275 180.26 102.415 180.873 102.695 181.42C102.989 181.953 103.382 182.373 103.875 182.68C104.382 182.987 104.949 183.14 105.575 183.14ZM118.434 185.24C117.394 185.24 116.44 184.993 115.574 184.5C114.72 184.007 114.04 183.333 113.534 182.48C113.027 181.627 112.774 180.66 112.774 179.58C112.774 178.487 113.027 177.52 113.534 176.68C114.04 175.827 114.72 175.16 115.574 174.68C116.427 174.187 117.38 173.94 118.434 173.94C119.5 173.94 120.454 174.187 121.294 174.68C122.147 175.16 122.82 175.827 123.314 176.68C123.82 177.52 124.074 178.487 124.074 179.58C124.074 180.673 123.82 181.647 123.314 182.5C122.807 183.353 122.127 184.027 121.274 184.52C120.42 185 119.474 185.24 118.434 185.24ZM118.434 183.14C119.074 183.14 119.64 182.987 120.134 182.68C120.627 182.373 121.014 181.953 121.294 181.42C121.587 180.873 121.734 180.26 121.734 179.58C121.734 178.9 121.587 178.293 121.294 177.76C121.014 177.227 120.627 176.807 120.134 176.5C119.64 176.193 119.074 176.04 118.434 176.04C117.807 176.04 117.24 176.193 116.734 176.5C116.24 176.807 115.847 177.227 115.554 177.76C115.274 178.293 115.134 178.9 115.134 179.58C115.134 180.26 115.274 180.873 115.554 181.42C115.847 181.953 116.24 182.373 116.734 182.68C117.24 182.987 117.807 183.14 118.434 183.14ZM124.61 185L128.39 179.58L124.61 174.18H127.27L130.37 178.7H129.09L132.19 174.18H134.85L131.05 179.58L134.83 185H132.17L129.11 180.46H130.35L127.27 185H124.61Z" fill="#3D4966"/>
<path d="M131.396 59C137.356 59 143.089 61.3556 147.307 65.5822C151.529 69.8 153.889 75.4889 153.889 81.4444V116.556C153.889 128.956 143.8 139 131.396 139H87.4889C75.0844 139 65 128.956 65 116.556V81.4444C65 69.0444 75.04 59 87.4889 59H131.396ZM136.422 82.1111C135.489 82.0622 134.6 82.3778 133.929 83L113.889 99C111.311 101.138 107.618 101.138 105 99L85 83C83.6178 81.9778 81.7067 82.1111 80.5556 83.3111C79.3556 84.5111 79.2222 86.4222 80.24 87.7556L80.8222 88.3333L101.044 104.111C103.533 106.067 106.551 107.133 109.711 107.133C112.862 107.133 115.933 106.067 118.418 104.111L138.467 88.0667L138.822 87.7111C139.884 86.4222 139.884 84.5556 138.773 83.2667C138.156 82.6044 137.307 82.2 136.422 82.1111Z" fill="#3D4966"/>
</g>
<defs>
<filter id="filter0_d_1412_4922" x="0" y="0" width="217" height="217" filterUnits="userSpaceOnUse" color-interpolation-filters="sRGB">
<feFlood flood-opacity="0" result="BackgroundImageFix"/>
<feColorMatrix in="SourceAlpha" type="matrix" values="0 0 0 0 0 0 0 0 0 0 0 0 0 0 0 0 0 0 127 0" result="hardAlpha"/>
<feOffset/>
<feGaussianBlur stdDeviation="2"/>
<feComposite in2="hardAlpha" operator="out"/>
<feColorMatrix type="matrix" values="0 0 0 0 0.847059 0 0 0 0 0.890196 0 0 0 0 0.964706 0 0 0 0.39 0"/>
<feBlend mode="normal" in2="BackgroundImageFix" result="effect1_dropShadow_1412_4922"/>
<feBlend mode="normal" in="SourceGraphic" in2="effect1_dropShadow_1412_4922" result="shape"/>
</filter>
</defs>
</svg>
