<svg width="97" height="18" viewBox="0 0 97 18" fill="none" xmlns="http://www.w3.org/2000/svg">
<circle cx="6.5" cy="8.5" r="6.5" fill="#B9FF26"/>
<path d="M23.078 15V4.57H24.73V13.53H29.238V15H23.078ZM30.3309 15V7.426H31.9129V15H30.3309ZM30.3309 6.39V4.57H31.9129V6.39H30.3309ZM36.8985 15.084C36.1052 15.084 35.4892 14.86 35.0505 14.412C34.6118 13.964 34.3925 13.334 34.3925 12.522V8.854H33.0625V7.426H33.2725C33.6272 7.426 33.9025 7.32333 34.0985 7.118C34.2945 6.91267 34.3925 6.63267 34.3925 6.278V5.69H35.9745V7.426H37.6965V8.854H35.9745V12.452C35.9745 12.7133 36.0165 12.9373 36.1005 13.124C36.1845 13.3013 36.3198 13.4413 36.5065 13.544C36.6932 13.6373 36.9358 13.684 37.2345 13.684C37.3092 13.684 37.3932 13.6793 37.4865 13.67C37.5798 13.6607 37.6685 13.6513 37.7525 13.642V15C37.6218 15.0187 37.4772 15.0373 37.3185 15.056C37.1598 15.0747 37.0198 15.084 36.8985 15.084ZM42.4323 15.084C41.639 15.084 41.023 14.86 40.5843 14.412C40.1457 13.964 39.9263 13.334 39.9263 12.522V8.854H38.5963V7.426H38.8063C39.161 7.426 39.4363 7.32333 39.6323 7.118C39.8283 6.91267 39.9263 6.63267 39.9263 6.278V5.69H41.5083V7.426H43.2303V8.854H41.5083V12.452C41.5083 12.7133 41.5503 12.9373 41.6343 13.124C41.7183 13.3013 41.8537 13.4413 42.0403 13.544C42.227 13.6373 42.4697 13.684 42.7683 13.684C42.843 13.684 42.927 13.6793 43.0203 13.67C43.1137 13.6607 43.2023 13.6513 43.2863 13.642V15C43.1557 15.0187 43.011 15.0373 42.8523 15.056C42.6937 15.0747 42.5537 15.084 42.4323 15.084ZM44.6902 15V4.402H46.2722V15H44.6902ZM51.5378 15.168C50.7818 15.168 50.1098 14.9953 49.5218 14.65C48.9431 14.2953 48.4905 13.8193 48.1638 13.222C47.8371 12.6153 47.6738 11.9387 47.6738 11.192C47.6738 10.4267 47.8371 9.75 48.1638 9.162C48.4998 8.574 48.9478 8.112 49.5078 7.776C50.0678 7.43067 50.7025 7.258 51.4118 7.258C51.9811 7.258 52.4898 7.356 52.9378 7.552C53.3858 7.748 53.7638 8.01867 54.0718 8.364C54.3798 8.7 54.6131 9.08733 54.7718 9.526C54.9398 9.96467 55.0238 10.4313 55.0238 10.926C55.0238 11.0473 55.0191 11.1733 55.0098 11.304C55.0005 11.4347 54.9818 11.556 54.9538 11.668H48.9198V10.408H54.0578L53.3018 10.982C53.3951 10.5247 53.3625 10.1187 53.2038 9.764C53.0545 9.4 52.8211 9.11533 52.5038 8.91C52.1958 8.69533 51.8318 8.588 51.4118 8.588C50.9918 8.588 50.6185 8.69533 50.2918 8.91C49.9651 9.11533 49.7131 9.414 49.5358 9.806C49.3585 10.1887 49.2885 10.6553 49.3258 11.206C49.2791 11.7193 49.3491 12.1673 49.5358 12.55C49.7318 12.9327 50.0025 13.2313 50.3478 13.446C50.7025 13.6607 51.1038 13.768 51.5518 13.768C52.0091 13.768 52.3965 13.6653 52.7138 13.46C53.0405 13.2547 53.2971 12.9887 53.4838 12.662L54.7718 13.292C54.6225 13.6467 54.3891 13.9687 54.0718 14.258C53.7638 14.538 53.3905 14.762 52.9518 14.93C52.5225 15.0887 52.0511 15.168 51.5378 15.168ZM63.775 15.168C63.0377 15.168 62.3517 15.0327 61.717 14.762C61.0917 14.4913 60.541 14.118 60.065 13.642C59.5983 13.1567 59.2343 12.5873 58.973 11.934C58.7117 11.2807 58.581 10.562 58.581 9.778C58.581 9.00333 58.707 8.28933 58.959 7.636C59.2203 6.97333 59.5843 6.404 60.051 5.928C60.5177 5.44267 61.0637 5.06933 61.689 4.808C62.3143 4.53733 63.0003 4.402 63.747 4.402C64.4843 4.402 65.1423 4.528 65.721 4.78C66.309 5.032 66.8037 5.36333 67.205 5.774C67.6063 6.17533 67.8957 6.614 68.073 7.09L66.603 7.804C66.3883 7.23467 66.0337 6.77733 65.539 6.432C65.0443 6.07733 64.447 5.9 63.747 5.9C63.0563 5.9 62.445 6.06333 61.913 6.39C61.381 6.71667 60.9657 7.16933 60.667 7.748C60.3777 8.32667 60.233 9.00333 60.233 9.778C60.233 10.5527 60.3823 11.234 60.681 11.822C60.989 12.4007 61.409 12.8533 61.941 13.18C62.473 13.4973 63.0843 13.656 63.775 13.656C64.3537 13.656 64.881 13.5393 65.357 13.306C65.8423 13.0633 66.2297 12.7273 66.519 12.298C66.8084 11.8593 66.953 11.3507 66.953 10.772V10.058L67.695 10.73H63.747V9.33H68.591V10.31C68.591 11.0753 68.4603 11.7613 68.199 12.368C67.9377 12.9653 67.583 13.474 67.135 13.894C66.687 14.314 66.1737 14.6313 65.595 14.846C65.0163 15.0607 64.4097 15.168 63.775 15.168ZM73.6377 15.168C72.9097 15.168 72.2424 14.9953 71.6357 14.65C71.0384 14.3047 70.5624 13.8333 70.2077 13.236C69.853 12.6387 69.6757 11.962 69.6757 11.206C69.6757 10.4407 69.853 9.764 70.2077 9.176C70.5624 8.57867 71.0384 8.112 71.6357 7.776C72.233 7.43067 72.9004 7.258 73.6377 7.258C74.3844 7.258 75.0517 7.43067 75.6397 7.776C76.237 8.112 76.7084 8.57867 77.0537 9.176C77.4084 9.764 77.5857 10.4407 77.5857 11.206C77.5857 11.9713 77.4084 12.6527 77.0537 13.25C76.699 13.8473 76.223 14.3187 75.6257 14.664C75.0284 15 74.3657 15.168 73.6377 15.168ZM73.6377 13.698C74.0857 13.698 74.4824 13.5907 74.8277 13.376C75.173 13.1613 75.4437 12.8673 75.6397 12.494C75.845 12.1113 75.9477 11.682 75.9477 11.206C75.9477 10.73 75.845 10.3053 75.6397 9.932C75.4437 9.55867 75.173 9.26467 74.8277 9.05C74.4824 8.83533 74.0857 8.728 73.6377 8.728C73.199 8.728 72.8024 8.83533 72.4477 9.05C72.1024 9.26467 71.827 9.55867 71.6217 9.932C71.4257 10.3053 71.3277 10.73 71.3277 11.206C71.3277 11.682 71.4257 12.1113 71.6217 12.494C71.827 12.8673 72.1024 13.1613 72.4477 13.376C72.8024 13.5907 73.199 13.698 73.6377 13.698ZM82.6442 15.168C81.9162 15.168 81.2488 14.9953 80.6422 14.65C80.0448 14.3047 79.5688 13.8333 79.2142 13.236C78.8595 12.6387 78.6822 11.962 78.6822 11.206C78.6822 10.4407 78.8595 9.764 79.2142 9.176C79.5688 8.57867 80.0448 8.112 80.6422 7.776C81.2395 7.43067 81.9068 7.258 82.6442 7.258C83.3908 7.258 84.0582 7.43067 84.6462 7.776C85.2435 8.112 85.7148 8.57867 86.0602 9.176C86.4148 9.764 86.5922 10.4407 86.5922 11.206C86.5922 11.9713 86.4148 12.6527 86.0602 13.25C85.7055 13.8473 85.2295 14.3187 84.6322 14.664C84.0348 15 83.3722 15.168 82.6442 15.168ZM82.6442 13.698C83.0922 13.698 83.4888 13.5907 83.8342 13.376C84.1795 13.1613 84.4502 12.8673 84.6462 12.494C84.8515 12.1113 84.9542 11.682 84.9542 11.206C84.9542 10.73 84.8515 10.3053 84.6462 9.932C84.4502 9.55867 84.1795 9.26467 83.8342 9.05C83.4888 8.83533 83.0922 8.728 82.6442 8.728C82.2055 8.728 81.8088 8.83533 81.4542 9.05C81.1088 9.26467 80.8335 9.55867 80.6282 9.932C80.4322 10.3053 80.3342 10.73 80.3342 11.206C80.3342 11.682 80.4322 12.1113 80.6282 12.494C80.8335 12.8673 81.1088 13.1613 81.4542 13.376C81.8088 13.5907 82.2055 13.698 82.6442 13.698ZM91.4967 15.168C90.7687 15.168 90.1153 14.9953 89.5367 14.65C88.9673 14.2953 88.5147 13.8193 88.1787 13.222C87.852 12.6247 87.6887 11.9527 87.6887 11.206C87.6887 10.4593 87.8567 9.78733 88.1927 9.19C88.5287 8.59267 88.9813 8.12133 89.5507 7.776C90.12 7.43067 90.764 7.258 91.4827 7.258C92.0893 7.258 92.626 7.37933 93.0927 7.622C93.5593 7.86467 93.928 8.20067 94.1987 8.63L93.9607 8.994V4.402H95.5287V15H94.0307V13.46L94.2127 13.754C93.9513 14.2113 93.578 14.5613 93.0927 14.804C92.6073 15.0467 92.0753 15.168 91.4967 15.168ZM91.6507 13.698C92.0893 13.698 92.4813 13.5907 92.8267 13.376C93.1813 13.1613 93.4567 12.8673 93.6527 12.494C93.858 12.1113 93.9607 11.682 93.9607 11.206C93.9607 10.73 93.858 10.3053 93.6527 9.932C93.4567 9.55867 93.1813 9.26467 92.8267 9.05C92.4813 8.83533 92.0893 8.728 91.6507 8.728C91.212 8.728 90.8153 8.83533 90.4607 9.05C90.106 9.26467 89.8307 9.55867 89.6347 9.932C89.4387 10.3053 89.3407 10.73 89.3407 11.206C89.3407 11.682 89.4387 12.1113 89.6347 12.494C89.8307 12.8673 90.1013 13.1613 90.4467 13.376C90.8013 13.5907 91.2027 13.698 91.6507 13.698Z" fill="#818BA0"/>
</svg>
