<svg width="99" height="19" viewBox="0 0 99 19" fill="none" xmlns="http://www.w3.org/2000/svg">
<circle cx="6.5" cy="8.5" r="6.5" fill="#FFDC26"/>
<path d="M23.078 15V4.57H24.73V13.53H29.238V15H23.078ZM30.3309 15V7.426H31.9129V15H30.3309ZM30.3309 6.39V4.57H31.9129V6.39H30.3309ZM36.8985 15.084C36.1052 15.084 35.4892 14.86 35.0505 14.412C34.6118 13.964 34.3925 13.334 34.3925 12.522V8.854H33.0625V7.426H33.2725C33.6272 7.426 33.9025 7.32333 34.0985 7.118C34.2945 6.91267 34.3925 6.63267 34.3925 6.278V5.69H35.9745V7.426H37.6965V8.854H35.9745V12.452C35.9745 12.7133 36.0165 12.9373 36.1005 13.124C36.1845 13.3013 36.3198 13.4413 36.5065 13.544C36.6932 13.6373 36.9358 13.684 37.2345 13.684C37.3092 13.684 37.3932 13.6793 37.4865 13.67C37.5798 13.6607 37.6685 13.6513 37.7525 13.642V15C37.6218 15.0187 37.4772 15.0373 37.3185 15.056C37.1598 15.0747 37.0198 15.084 36.8985 15.084ZM42.4323 15.084C41.639 15.084 41.023 14.86 40.5843 14.412C40.1457 13.964 39.9263 13.334 39.9263 12.522V8.854H38.5963V7.426H38.8063C39.161 7.426 39.4363 7.32333 39.6323 7.118C39.8283 6.91267 39.9263 6.63267 39.9263 6.278V5.69H41.5083V7.426H43.2303V8.854H41.5083V12.452C41.5083 12.7133 41.5503 12.9373 41.6343 13.124C41.7183 13.3013 41.8537 13.4413 42.0403 13.544C42.227 13.6373 42.4697 13.684 42.7683 13.684C42.843 13.684 42.927 13.6793 43.0203 13.67C43.1137 13.6607 43.2023 13.6513 43.2863 13.642V15C43.1557 15.0187 43.011 15.0373 42.8523 15.056C42.6937 15.0747 42.5537 15.084 42.4323 15.084ZM44.6902 15V4.402H46.2722V15H44.6902ZM51.5378 15.168C50.7818 15.168 50.1098 14.9953 49.5218 14.65C48.9431 14.2953 48.4905 13.8193 48.1638 13.222C47.8371 12.6153 47.6738 11.9387 47.6738 11.192C47.6738 10.4267 47.8371 9.75 48.1638 9.162C48.4998 8.574 48.9478 8.112 49.5078 7.776C50.0678 7.43067 50.7025 7.258 51.4118 7.258C51.9811 7.258 52.4898 7.356 52.9378 7.552C53.3858 7.748 53.7638 8.01867 54.0718 8.364C54.3798 8.7 54.6131 9.08733 54.7718 9.526C54.9398 9.96467 55.0238 10.4313 55.0238 10.926C55.0238 11.0473 55.0191 11.1733 55.0098 11.304C55.0005 11.4347 54.9818 11.556 54.9538 11.668H48.9198V10.408H54.0578L53.3018 10.982C53.3951 10.5247 53.3625 10.1187 53.2038 9.764C53.0545 9.4 52.8211 9.11533 52.5038 8.91C52.1958 8.69533 51.8318 8.588 51.4118 8.588C50.9918 8.588 50.6185 8.69533 50.2918 8.91C49.9651 9.11533 49.7131 9.414 49.5358 9.806C49.3585 10.1887 49.2885 10.6553 49.3258 11.206C49.2791 11.7193 49.3491 12.1673 49.5358 12.55C49.7318 12.9327 50.0025 13.2313 50.3478 13.446C50.7025 13.6607 51.1038 13.768 51.5518 13.768C52.0091 13.768 52.3965 13.6653 52.7138 13.46C53.0405 13.2547 53.2971 12.9887 53.4838 12.662L54.7718 13.292C54.6225 13.6467 54.3891 13.9687 54.0718 14.258C53.7638 14.538 53.3905 14.762 52.9518 14.93C52.5225 15.0887 52.0511 15.168 51.5378 15.168ZM60.737 15V6.04H57.965V4.57H65.105V6.04H62.375V15H60.737ZM68.7158 15.168C67.9878 15.168 67.3205 14.9953 66.7138 14.65C66.1165 14.3047 65.6405 13.8333 65.2858 13.236C64.9311 12.6387 64.7538 11.962 64.7538 11.206C64.7538 10.4407 64.9311 9.764 65.2858 9.176C65.6405 8.57867 66.1165 8.112 66.7138 7.776C67.3111 7.43067 67.9785 7.258 68.7158 7.258C69.4625 7.258 70.1298 7.43067 70.7178 7.776C71.3151 8.112 71.7865 8.57867 72.1318 9.176C72.4865 9.764 72.6638 10.4407 72.6638 11.206C72.6638 11.9713 72.4865 12.6527 72.1318 13.25C71.7771 13.8473 71.3011 14.3187 70.7038 14.664C70.1065 15 69.4438 15.168 68.7158 15.168ZM68.7158 13.698C69.1638 13.698 69.5605 13.5907 69.9058 13.376C70.2511 13.1613 70.5218 12.8673 70.7178 12.494C70.9231 12.1113 71.0258 11.682 71.0258 11.206C71.0258 10.73 70.9231 10.3053 70.7178 9.932C70.5218 9.55867 70.2511 9.26467 69.9058 9.05C69.5605 8.83533 69.1638 8.728 68.7158 8.728C68.2771 8.728 67.8805 8.83533 67.5258 9.05C67.1805 9.26467 66.9051 9.55867 66.6998 9.932C66.5038 10.3053 66.4058 10.73 66.4058 11.206C66.4058 11.682 66.5038 12.1113 66.6998 12.494C66.9051 12.8673 67.1805 13.1613 67.5258 13.376C67.8805 13.5907 68.2771 13.698 68.7158 13.698ZM76.7703 15.168C76.201 15.168 75.7016 15.042 75.2723 14.79C74.843 14.5287 74.507 14.1693 74.2643 13.712C74.031 13.2453 73.9143 12.7087 73.9143 12.102V7.426H75.4963V11.962C75.4963 12.3073 75.5663 12.6107 75.7063 12.872C75.8463 13.1333 76.0423 13.3387 76.2943 13.488C76.5463 13.628 76.8356 13.698 77.1623 13.698C77.4983 13.698 77.7923 13.6233 78.0443 13.474C78.2963 13.3247 78.4923 13.1147 78.6323 12.844C78.7816 12.5733 78.8563 12.256 78.8563 11.892V7.426H80.4243V15H78.9263V13.516L79.0943 13.712C78.917 14.1787 78.623 14.538 78.2123 14.79C77.8016 15.042 77.321 15.168 76.7703 15.168ZM85.7854 18.08C85.2348 18.08 84.7261 17.9913 84.2594 17.814C83.7928 17.6367 83.3914 17.3893 83.0554 17.072C82.7194 16.764 82.4674 16.4 82.2994 15.98L83.7554 15.378C83.8861 15.7327 84.1241 16.0267 84.4694 16.26C84.8241 16.4933 85.2581 16.61 85.7714 16.61C86.1728 16.61 86.5321 16.5307 86.8494 16.372C87.1668 16.2227 87.4188 15.9987 87.6054 15.7C87.7921 15.4107 87.8854 15.0607 87.8854 14.65V12.942L88.1654 13.264C87.9041 13.7493 87.5401 14.118 87.0734 14.37C86.6161 14.622 86.0981 14.748 85.5194 14.748C84.8194 14.748 84.1894 14.5847 83.6294 14.258C83.0694 13.9313 82.6261 13.4833 82.2994 12.914C81.9821 12.3447 81.8234 11.7053 81.8234 10.996C81.8234 10.2773 81.9821 9.638 82.2994 9.078C82.6261 8.518 83.0648 8.07467 83.6154 7.748C84.1661 7.42133 84.7961 7.258 85.5054 7.258C86.0841 7.258 86.5974 7.384 87.0454 7.636C87.5028 7.87867 87.8761 8.23333 88.1654 8.7L87.9554 9.092V7.426H89.4534V14.65C89.4534 15.3033 89.2948 15.8867 88.9774 16.4C88.6694 16.9227 88.2401 17.3333 87.6894 17.632C87.1388 17.9307 86.5041 18.08 85.7854 18.08ZM85.7014 13.278C86.1214 13.278 86.4948 13.18 86.8214 12.984C87.1481 12.7787 87.4048 12.508 87.5914 12.172C87.7874 11.8267 87.8854 11.4393 87.8854 11.01C87.8854 10.5807 87.7874 10.1933 87.5914 9.848C87.3954 9.50267 87.1341 9.232 86.8074 9.036C86.4808 8.83067 86.1121 8.728 85.7014 8.728C85.2721 8.728 84.8894 8.83067 84.5534 9.036C84.2174 9.232 83.9514 9.50267 83.7554 9.848C83.5688 10.184 83.4754 10.5713 83.4754 11.01C83.4754 11.43 83.5688 11.8127 83.7554 12.158C83.9514 12.5033 84.2174 12.7787 84.5534 12.984C84.8894 13.18 85.2721 13.278 85.7014 13.278ZM91.1652 15V4.402H92.7472V8.91L92.4952 8.714C92.6819 8.238 92.9806 7.87867 93.3912 7.636C93.8019 7.384 94.2779 7.258 94.8192 7.258C95.3792 7.258 95.8739 7.37933 96.3032 7.622C96.7326 7.86467 97.0686 8.20067 97.3112 8.63C97.5539 9.05933 97.6752 9.54933 97.6752 10.1V15H96.1072V10.534C96.1072 10.1513 96.0326 9.82933 95.8832 9.568C95.7432 9.29733 95.5472 9.092 95.2952 8.952C95.0432 8.80267 94.7539 8.728 94.4272 8.728C94.1099 8.728 93.8206 8.80267 93.5592 8.952C93.3072 9.092 93.1066 9.29733 92.9572 9.568C92.8172 9.83867 92.7472 10.1607 92.7472 10.534V15H91.1652Z" fill="#818BA0"/>
</svg>
