<svg width="69" height="18" viewBox="0 0 69 18" fill="none" xmlns="http://www.w3.org/2000/svg">
<circle cx="6.5" cy="8.5" r="6.5" fill="#FF2626"/>
<path d="M26.732 15.168C26.0787 15.168 25.472 15.0467 24.912 14.804C24.352 14.552 23.876 14.2113 23.484 13.782C23.092 13.3527 22.8027 12.858 22.616 12.298L24.016 11.71C24.268 12.354 24.6367 12.8487 25.122 13.194C25.6073 13.5393 26.1673 13.712 26.802 13.712C27.1753 13.712 27.502 13.656 27.782 13.544C28.062 13.4227 28.2767 13.2547 28.426 13.04C28.5847 12.8253 28.664 12.578 28.664 12.298C28.664 11.9153 28.5567 11.612 28.342 11.388C28.1273 11.164 27.81 10.9867 27.39 10.856L25.43 10.24C24.646 9.99733 24.0487 9.62867 23.638 9.134C23.2273 8.63 23.022 8.042 23.022 7.37C23.022 6.782 23.1667 6.26867 23.456 5.83C23.7453 5.382 24.142 5.032 24.646 4.78C25.1593 4.528 25.7427 4.402 26.396 4.402C27.0213 4.402 27.5907 4.514 28.104 4.738C28.6173 4.95267 29.056 5.25133 29.42 5.634C29.7933 6.01667 30.064 6.46 30.232 6.964L28.86 7.566C28.6547 7.01533 28.3327 6.59067 27.894 6.292C27.4647 5.99333 26.9653 5.844 26.396 5.844C26.0507 5.844 25.7473 5.90467 25.486 6.026C25.2247 6.138 25.0193 6.306 24.87 6.53C24.73 6.74467 24.66 6.99667 24.66 7.286C24.66 7.622 24.7673 7.92067 24.982 8.182C25.1967 8.44333 25.5233 8.63933 25.962 8.77L27.782 9.344C28.6127 9.596 29.238 9.96 29.658 10.436C30.078 10.9027 30.288 11.486 30.288 12.186C30.288 12.7647 30.134 13.278 29.826 13.726C29.5273 14.174 29.112 14.5287 28.58 14.79C28.048 15.042 27.432 15.168 26.732 15.168ZM35.4045 15.168C34.6485 15.168 33.9765 14.9953 33.3885 14.65C32.8098 14.2953 32.3571 13.8193 32.0305 13.222C31.7038 12.6153 31.5405 11.9387 31.5405 11.192C31.5405 10.4267 31.7038 9.75 32.0305 9.162C32.3665 8.574 32.8145 8.112 33.3745 7.776C33.9345 7.43067 34.5691 7.258 35.2785 7.258C35.8478 7.258 36.3565 7.356 36.8045 7.552C37.2525 7.748 37.6305 8.01867 37.9385 8.364C38.2465 8.7 38.4798 9.08733 38.6385 9.526C38.8065 9.96467 38.8905 10.4313 38.8905 10.926C38.8905 11.0473 38.8858 11.1733 38.8765 11.304C38.8671 11.4347 38.8485 11.556 38.8205 11.668H32.7865V10.408H37.9245L37.1685 10.982C37.2618 10.5247 37.2291 10.1187 37.0705 9.764C36.9211 9.4 36.6878 9.11533 36.3705 8.91C36.0625 8.69533 35.6985 8.588 35.2785 8.588C34.8585 8.588 34.4851 8.69533 34.1585 8.91C33.8318 9.11533 33.5798 9.414 33.4025 9.806C33.2251 10.1887 33.1551 10.6553 33.1925 11.206C33.1458 11.7193 33.2158 12.1673 33.4025 12.55C33.5985 12.9327 33.8691 13.2313 34.2145 13.446C34.5691 13.6607 34.9705 13.768 35.4185 13.768C35.8758 13.768 36.2631 13.6653 36.5805 13.46C36.9071 13.2547 37.1638 12.9887 37.3505 12.662L38.6385 13.292C38.4891 13.6467 38.2558 13.9687 37.9385 14.258C37.6305 14.538 37.2571 14.762 36.8185 14.93C36.3891 15.0887 35.9178 15.168 35.4045 15.168ZM42.3557 15L39.3877 7.426H41.1097L43.3917 13.6H42.7617L45.0437 7.426H46.7797L43.7977 15H42.3557ZM51.1342 15.168C50.3782 15.168 49.7062 14.9953 49.1182 14.65C48.5396 14.2953 48.0869 13.8193 47.7602 13.222C47.4336 12.6153 47.2702 11.9387 47.2702 11.192C47.2702 10.4267 47.4336 9.75 47.7602 9.162C48.0962 8.574 48.5442 8.112 49.1042 7.776C49.6642 7.43067 50.2989 7.258 51.0082 7.258C51.5776 7.258 52.0862 7.356 52.5342 7.552C52.9822 7.748 53.3602 8.01867 53.6682 8.364C53.9762 8.7 54.2096 9.08733 54.3682 9.526C54.5362 9.96467 54.6202 10.4313 54.6202 10.926C54.6202 11.0473 54.6156 11.1733 54.6062 11.304C54.5969 11.4347 54.5782 11.556 54.5502 11.668H48.5162V10.408H53.6542L52.8982 10.982C52.9916 10.5247 52.9589 10.1187 52.8002 9.764C52.6509 9.4 52.4176 9.11533 52.1002 8.91C51.7922 8.69533 51.4282 8.588 51.0082 8.588C50.5882 8.588 50.2149 8.69533 49.8882 8.91C49.5616 9.11533 49.3096 9.414 49.1322 9.806C48.9549 10.1887 48.8849 10.6553 48.9222 11.206C48.8756 11.7193 48.9456 12.1673 49.1322 12.55C49.3282 12.9327 49.5989 13.2313 49.9442 13.446C50.2989 13.6607 50.7002 13.768 51.1482 13.768C51.6056 13.768 51.9929 13.6653 52.3102 13.46C52.6369 13.2547 52.8936 12.9887 53.0802 12.662L54.3682 13.292C54.2189 13.6467 53.9856 13.9687 53.6682 14.258C53.3602 14.538 52.9869 14.762 52.5482 14.93C52.1189 15.0887 51.6476 15.168 51.1342 15.168ZM56.0242 15V7.426H57.5362V8.952L57.3962 8.728C57.5642 8.23333 57.8348 7.87867 58.2082 7.664C58.5815 7.44 59.0295 7.328 59.5522 7.328H60.0142V8.77H59.3562C58.8335 8.77 58.4088 8.93333 58.0822 9.26C57.7648 9.57733 57.6062 10.0347 57.6062 10.632V15H56.0242ZM64.5124 15.168C63.7564 15.168 63.0844 14.9953 62.4964 14.65C61.9178 14.2953 61.4651 13.8193 61.1384 13.222C60.8118 12.6153 60.6484 11.9387 60.6484 11.192C60.6484 10.4267 60.8118 9.75 61.1384 9.162C61.4744 8.574 61.9224 8.112 62.4824 7.776C63.0424 7.43067 63.6771 7.258 64.3864 7.258C64.9558 7.258 65.4644 7.356 65.9124 7.552C66.3604 7.748 66.7384 8.01867 67.0464 8.364C67.3544 8.7 67.5878 9.08733 67.7464 9.526C67.9144 9.96467 67.9984 10.4313 67.9984 10.926C67.9984 11.0473 67.9938 11.1733 67.9844 11.304C67.9751 11.4347 67.9564 11.556 67.9284 11.668H61.8944V10.408H67.0324L66.2764 10.982C66.3698 10.5247 66.3371 10.1187 66.1784 9.764C66.0291 9.4 65.7958 9.11533 65.4784 8.91C65.1704 8.69533 64.8064 8.588 64.3864 8.588C63.9664 8.588 63.5931 8.69533 63.2664 8.91C62.9398 9.11533 62.6878 9.414 62.5104 9.806C62.3331 10.1887 62.2631 10.6553 62.3004 11.206C62.2538 11.7193 62.3238 12.1673 62.5104 12.55C62.7064 12.9327 62.9771 13.2313 63.3224 13.446C63.6771 13.6607 64.0784 13.768 64.5264 13.768C64.9838 13.768 65.3711 13.6653 65.6884 13.46C66.0151 13.2547 66.2718 12.9887 66.4584 12.662L67.7464 13.292C67.5971 13.6467 67.3638 13.9687 67.0464 14.258C66.7384 14.538 66.3651 14.762 65.9264 14.93C65.4971 15.0887 65.0258 15.168 64.5124 15.168Z" fill="#818BA0"/>
</svg>
