<svg width="128" height="56" viewBox="0 0 128 56" fill="none" xmlns="http://www.w3.org/2000/svg">
<rect width="128" height="56" rx="12" fill="#0F67FE"/>
<path d="M21.908 35.192C21.1507 35.192 20.4467 35.0533 19.796 34.776C19.156 34.4987 18.6013 34.1147 18.132 33.624C17.6733 33.1227 17.3373 32.5413 17.124 31.88L18.932 31.096C19.22 31.7787 19.636 32.3173 20.18 32.712C20.724 33.096 21.3373 33.288 22.02 33.288C22.404 33.288 22.7347 33.2293 23.012 33.112C23.3 32.984 23.5187 32.8133 23.668 32.6C23.828 32.3867 23.908 32.1307 23.908 31.832C23.908 31.48 23.8013 31.192 23.588 30.968C23.3853 30.7333 23.076 30.552 22.66 30.424L20.372 29.688C19.444 29.4 18.7453 28.968 18.276 28.392C17.8067 27.816 17.572 27.1387 17.572 26.36C17.572 25.6773 17.7373 25.0747 18.068 24.552C18.4093 24.0293 18.8787 23.624 19.476 23.336C20.084 23.0373 20.7773 22.888 21.556 22.888C22.2707 22.888 22.9267 23.016 23.524 23.272C24.1213 23.5173 24.6333 23.864 25.06 24.312C25.4973 24.7493 25.8227 25.2667 26.036 25.864L24.244 26.664C24.0093 26.0667 23.6573 25.608 23.188 25.288C22.7187 24.9573 22.1747 24.792 21.556 24.792C21.1933 24.792 20.8733 24.856 20.596 24.984C20.3187 25.1013 20.1 25.272 19.94 25.496C19.7907 25.7093 19.716 25.9653 19.716 26.264C19.716 26.5947 19.8227 26.888 20.036 27.144C20.2493 27.3893 20.5747 27.5813 21.012 27.72L23.204 28.408C24.1533 28.7173 24.8627 29.144 25.332 29.688C25.812 30.232 26.052 30.904 26.052 31.704C26.052 32.3867 25.876 32.9893 25.524 33.512C25.172 34.0347 24.6867 34.4453 24.068 34.744C23.4493 35.0427 22.7293 35.192 21.908 35.192ZM30.7794 35.192C30.1074 35.192 29.5207 35.0427 29.0194 34.744C28.5287 34.4453 28.15 34.0293 27.8834 33.496C27.6274 32.9627 27.4994 32.3387 27.4994 31.624V26.296H29.5954V31.448C29.5954 31.8107 29.6647 32.1307 29.8034 32.408C29.9527 32.6747 30.1607 32.888 30.4274 33.048C30.7047 33.1973 31.014 33.272 31.3554 33.272C31.6967 33.272 32.0007 33.1973 32.2674 33.048C32.534 32.888 32.742 32.6693 32.8914 32.392C33.0407 32.1147 33.1154 31.784 33.1154 31.4V26.296H35.2114V35H33.2274V33.288L33.4034 33.592C33.2007 34.1253 32.8647 34.5253 32.3954 34.792C31.9367 35.0587 31.398 35.192 30.7794 35.192ZM41.7518 35.192C41.1224 35.192 40.5411 35.0693 40.0078 34.824C39.4851 34.568 39.0691 34.2053 38.7598 33.736L38.9678 33.32V35H36.9998V22.888H39.0958V28.024L38.7758 27.592C39.0744 27.1227 39.4798 26.76 39.9918 26.504C40.5038 26.2373 41.0958 26.104 41.7678 26.104C42.5891 26.104 43.3304 26.3067 43.9918 26.712C44.6531 27.1173 45.1758 27.6613 45.5598 28.344C45.9544 29.0267 46.1518 29.7947 46.1518 30.648C46.1518 31.4907 45.9598 32.2587 45.5758 32.952C45.1918 33.6453 44.6691 34.1947 44.0078 34.6C43.3464 34.9947 42.5944 35.192 41.7518 35.192ZM41.5118 33.272C41.9918 33.272 42.4184 33.16 42.7918 32.936C43.1651 32.712 43.4531 32.4027 43.6558 32.008C43.8691 31.6133 43.9758 31.16 43.9758 30.648C43.9758 30.136 43.8691 29.688 43.6558 29.304C43.4531 28.9093 43.1651 28.6 42.7918 28.376C42.4184 28.1413 41.9918 28.024 41.5118 28.024C41.0531 28.024 40.6371 28.136 40.2638 28.36C39.9011 28.584 39.6131 28.8987 39.3998 29.304C39.1971 29.6987 39.0958 30.1467 39.0958 30.648C39.0958 31.16 39.1971 31.6133 39.3998 32.008C39.6131 32.4027 39.9011 32.712 40.2638 32.936C40.6371 33.16 41.0531 33.272 41.5118 33.272ZM47.5898 35V26.296H49.5578V28.312L49.3338 27.976C49.4938 27.3467 49.8138 26.8773 50.2938 26.568C50.7738 26.2587 51.3391 26.104 51.9898 26.104C52.7044 26.104 53.3338 26.2907 53.8778 26.664C54.4218 27.0373 54.7738 27.528 54.9338 28.136L54.3418 28.184C54.6084 27.4907 55.0084 26.9733 55.5418 26.632C56.0751 26.28 56.6884 26.104 57.3818 26.104C58.0004 26.104 58.5498 26.2427 59.0298 26.52C59.5204 26.7973 59.9044 27.1867 60.1818 27.688C60.4591 28.1787 60.5978 28.7493 60.5978 29.4V35H58.5018V29.896C58.5018 29.512 58.4324 29.1813 58.2938 28.904C58.1551 28.6267 57.9631 28.4133 57.7178 28.264C57.4724 28.104 57.1738 28.024 56.8218 28.024C56.4911 28.024 56.1978 28.104 55.9418 28.264C55.6858 28.4133 55.4884 28.6267 55.3498 28.904C55.2111 29.1813 55.1418 29.512 55.1418 29.896V35H53.0458V29.896C53.0458 29.512 52.9764 29.1813 52.8378 28.904C52.6991 28.6267 52.5018 28.4133 52.2458 28.264C52.0004 28.104 51.7071 28.024 51.3658 28.024C51.0351 28.024 50.7418 28.104 50.4858 28.264C50.2298 28.4133 50.0324 28.6267 49.8938 28.904C49.7551 29.1813 49.6858 29.512 49.6858 29.896V35H47.5898ZM62.211 35V26.296H64.307V35H62.211ZM62.211 25.32V23.08H64.307V25.32H62.211ZM70.0503 35.096C69.0689 35.096 68.3063 34.8293 67.7623 34.296C67.2289 33.752 66.9623 32.9893 66.9623 32.008V28.168H65.4583V26.296H65.6183C66.0449 26.296 66.3756 26.184 66.6103 25.96C66.8449 25.736 66.9623 25.4107 66.9623 24.984V24.312H69.0583V26.296H71.0583V28.168H69.0583V31.896C69.0583 32.184 69.1063 32.4293 69.2023 32.632C69.3089 32.8347 69.4689 32.9893 69.6823 33.096C69.9063 33.2027 70.1889 33.256 70.5303 33.256C70.6049 33.256 70.6903 33.2507 70.7863 33.24C70.8929 33.2293 70.9943 33.2187 71.0903 33.208V35C70.9409 35.0213 70.7703 35.0427 70.5783 35.064C70.3863 35.0853 70.2103 35.096 70.0503 35.096ZM75.3914 35V23.08H79.2794C80.538 23.08 81.6314 23.336 82.5594 23.848C83.498 24.3493 84.2234 25.048 84.7354 25.944C85.2474 26.8293 85.5034 27.8587 85.5034 29.032C85.5034 30.1947 85.2474 31.2293 84.7354 32.136C84.2234 33.032 83.498 33.736 82.5594 34.248C81.6314 34.7493 80.538 35 79.2794 35H75.3914ZM77.5674 33.08H79.3274C80.138 33.08 80.8367 32.9147 81.4234 32.584C82.0207 32.2427 82.4847 31.7733 82.8154 31.176C83.146 30.568 83.3114 29.8533 83.3114 29.032C83.3114 28.2 83.146 27.4853 82.8154 26.888C82.4847 26.2907 82.0207 25.8267 81.4234 25.496C80.8367 25.1653 80.138 25 79.3274 25H77.5674V33.08ZM89.5079 35.192C88.8999 35.192 88.3719 35.0907 87.9239 34.888C87.4759 34.6853 87.1292 34.3973 86.8839 34.024C86.6385 33.64 86.5159 33.1973 86.5159 32.696C86.5159 32.216 86.6225 31.7893 86.8359 31.416C87.0492 31.032 87.3799 30.712 87.8279 30.456C88.2759 30.2 88.8412 30.0187 89.5239 29.912L92.3719 29.448V31.048L89.9239 31.464C89.5079 31.5387 89.1985 31.672 88.9959 31.864C88.7932 32.056 88.6919 32.3067 88.6919 32.616C88.6919 32.9147 88.8039 33.1547 89.0279 33.336C89.2625 33.5067 89.5505 33.592 89.8919 33.592C90.3292 33.592 90.7132 33.5013 91.0439 33.32C91.3852 33.128 91.6465 32.8667 91.8279 32.536C92.0199 32.2053 92.1159 31.8427 92.1159 31.448V29.208C92.1159 28.8347 91.9665 28.5253 91.6679 28.28C91.3799 28.024 90.9959 27.896 90.5159 27.896C90.0679 27.896 89.6679 28.0187 89.3159 28.264C88.9745 28.4987 88.7239 28.8133 88.5639 29.208L86.8519 28.376C87.0225 27.9173 87.2892 27.5227 87.6519 27.192C88.0252 26.8507 88.4625 26.584 88.9639 26.392C89.4652 26.2 90.0092 26.104 90.5959 26.104C91.3105 26.104 91.9399 26.2373 92.4839 26.504C93.0279 26.76 93.4492 27.1227 93.7479 27.592C94.0572 28.0507 94.2119 28.5893 94.2119 29.208V35H92.2279V33.512L92.6759 33.48C92.4519 33.8533 92.1852 34.168 91.8759 34.424C91.5665 34.6693 91.2145 34.8613 90.8199 35C90.4252 35.128 89.9879 35.192 89.5079 35.192ZM99.8009 35.096C98.8195 35.096 98.0569 34.8293 97.5129 34.296C96.9795 33.752 96.7129 32.9893 96.7129 32.008V28.168H95.2089V26.296H95.3689C95.7955 26.296 96.1262 26.184 96.3609 25.96C96.5955 25.736 96.7129 25.4107 96.7129 24.984V24.312H98.8089V26.296H100.809V28.168H98.8089V31.896C98.8089 32.184 98.8569 32.4293 98.9529 32.632C99.0595 32.8347 99.2195 32.9893 99.4329 33.096C99.6569 33.2027 99.9395 33.256 100.281 33.256C100.356 33.256 100.441 33.2507 100.537 33.24C100.644 33.2293 100.745 33.2187 100.841 33.208V35C100.692 35.0213 100.521 35.0427 100.329 35.064C100.137 35.0853 99.9609 35.096 99.8009 35.096ZM104.891 35.192C104.283 35.192 103.755 35.0907 103.307 34.888C102.859 34.6853 102.512 34.3973 102.267 34.024C102.022 33.64 101.899 33.1973 101.899 32.696C101.899 32.216 102.006 31.7893 102.219 31.416C102.432 31.032 102.763 30.712 103.211 30.456C103.659 30.2 104.224 30.0187 104.907 29.912L107.755 29.448V31.048L105.307 31.464C104.891 31.5387 104.582 31.672 104.379 31.864C104.176 32.056 104.075 32.3067 104.075 32.616C104.075 32.9147 104.187 33.1547 104.411 33.336C104.646 33.5067 104.934 33.592 105.275 33.592C105.712 33.592 106.096 33.5013 106.427 33.32C106.768 33.128 107.03 32.8667 107.211 32.536C107.403 32.2053 107.499 31.8427 107.499 31.448V29.208C107.499 28.8347 107.35 28.5253 107.051 28.28C106.763 28.024 106.379 27.896 105.899 27.896C105.451 27.896 105.051 28.0187 104.699 28.264C104.358 28.4987 104.107 28.8133 103.947 29.208L102.235 28.376C102.406 27.9173 102.672 27.5227 103.035 27.192C103.408 26.8507 103.846 26.584 104.347 26.392C104.848 26.2 105.392 26.104 105.979 26.104C106.694 26.104 107.323 26.2373 107.867 26.504C108.411 26.76 108.832 27.1227 109.131 27.592C109.44 28.0507 109.595 28.5893 109.595 29.208V35H107.611V33.512L108.059 33.48C107.835 33.8533 107.568 34.168 107.259 34.424C106.95 34.6693 106.598 34.8613 106.203 35C105.808 35.128 105.371 35.192 104.891 35.192Z" fill="white"/>
</svg>
