<svg width="63" height="19" viewBox="0 0 63 19" fill="none" xmlns="http://www.w3.org/2000/svg">
<circle cx="6.5" cy="8.5" r="6.5" fill="#FF9B26"/>
<path d="M24.926 15V6.04H22.154V4.57H29.294V6.04H26.564V15H24.926ZM32.9048 15.168C32.1768 15.168 31.5095 14.9953 30.9028 14.65C30.3055 14.3047 29.8295 13.8333 29.4748 13.236C29.1201 12.6387 28.9428 11.962 28.9428 11.206C28.9428 10.4407 29.1201 9.764 29.4748 9.176C29.8295 8.57867 30.3055 8.112 30.9028 7.776C31.5001 7.43067 32.1675 7.258 32.9048 7.258C33.6515 7.258 34.3188 7.43067 34.9068 7.776C35.5041 8.112 35.9755 8.57867 36.3208 9.176C36.6755 9.764 36.8528 10.4407 36.8528 11.206C36.8528 11.9713 36.6755 12.6527 36.3208 13.25C35.9661 13.8473 35.4901 14.3187 34.8928 14.664C34.2955 15 33.6328 15.168 32.9048 15.168ZM32.9048 13.698C33.3528 13.698 33.7495 13.5907 34.0948 13.376C34.4401 13.1613 34.7108 12.8673 34.9068 12.494C35.1121 12.1113 35.2148 11.682 35.2148 11.206C35.2148 10.73 35.1121 10.3053 34.9068 9.932C34.7108 9.55867 34.4401 9.26467 34.0948 9.05C33.7495 8.83533 33.3528 8.728 32.9048 8.728C32.4661 8.728 32.0695 8.83533 31.7148 9.05C31.3695 9.26467 31.0941 9.55867 30.8888 9.932C30.6928 10.3053 30.5948 10.73 30.5948 11.206C30.5948 11.682 30.6928 12.1113 30.8888 12.494C31.0941 12.8673 31.3695 13.1613 31.7148 13.376C32.0695 13.5907 32.4661 13.698 32.9048 13.698ZM40.9593 15.168C40.3899 15.168 39.8906 15.042 39.4613 14.79C39.0319 14.5287 38.6959 14.1693 38.4533 13.712C38.2199 13.2453 38.1033 12.7087 38.1033 12.102V7.426H39.6853V11.962C39.6853 12.3073 39.7553 12.6107 39.8953 12.872C40.0353 13.1333 40.2313 13.3387 40.4833 13.488C40.7353 13.628 41.0246 13.698 41.3513 13.698C41.6873 13.698 41.9813 13.6233 42.2333 13.474C42.4853 13.3247 42.6813 13.1147 42.8213 12.844C42.9706 12.5733 43.0453 12.256 43.0453 11.892V7.426H44.6133V15H43.1153V13.516L43.2833 13.712C43.1059 14.1787 42.8119 14.538 42.4013 14.79C41.9906 15.042 41.5099 15.168 40.9593 15.168ZM49.9744 18.08C49.4237 18.08 48.9151 17.9913 48.4484 17.814C47.9817 17.6367 47.5804 17.3893 47.2444 17.072C46.9084 16.764 46.6564 16.4 46.4884 15.98L47.9444 15.378C48.0751 15.7327 48.3131 16.0267 48.6584 16.26C49.0131 16.4933 49.4471 16.61 49.9604 16.61C50.3617 16.61 50.7211 16.5307 51.0384 16.372C51.3557 16.2227 51.6077 15.9987 51.7944 15.7C51.9811 15.4107 52.0744 15.0607 52.0744 14.65V12.942L52.3544 13.264C52.0931 13.7493 51.7291 14.118 51.2624 14.37C50.8051 14.622 50.2871 14.748 49.7084 14.748C49.0084 14.748 48.3784 14.5847 47.8184 14.258C47.2584 13.9313 46.8151 13.4833 46.4884 12.914C46.1711 12.3447 46.0124 11.7053 46.0124 10.996C46.0124 10.2773 46.1711 9.638 46.4884 9.078C46.8151 8.518 47.2537 8.07467 47.8044 7.748C48.3551 7.42133 48.9851 7.258 49.6944 7.258C50.2731 7.258 50.7864 7.384 51.2344 7.636C51.6917 7.87867 52.0651 8.23333 52.3544 8.7L52.1444 9.092V7.426H53.6424V14.65C53.6424 15.3033 53.4837 15.8867 53.1664 16.4C52.8584 16.9227 52.4291 17.3333 51.8784 17.632C51.3277 17.9307 50.6931 18.08 49.9744 18.08ZM49.8904 13.278C50.3104 13.278 50.6837 13.18 51.0104 12.984C51.3371 12.7787 51.5937 12.508 51.7804 12.172C51.9764 11.8267 52.0744 11.4393 52.0744 11.01C52.0744 10.5807 51.9764 10.1933 51.7804 9.848C51.5844 9.50267 51.3231 9.232 50.9964 9.036C50.6697 8.83067 50.3011 8.728 49.8904 8.728C49.4611 8.728 49.0784 8.83067 48.7424 9.036C48.4064 9.232 48.1404 9.50267 47.9444 9.848C47.7577 10.184 47.6644 10.5713 47.6644 11.01C47.6644 11.43 47.7577 11.8127 47.9444 12.158C48.1404 12.5033 48.4064 12.7787 48.7424 12.984C49.0784 13.18 49.4611 13.278 49.8904 13.278ZM55.3542 15V4.402H56.9362V8.91L56.6842 8.714C56.8709 8.238 57.1696 7.87867 57.5802 7.636C57.9909 7.384 58.4669 7.258 59.0082 7.258C59.5682 7.258 60.0629 7.37933 60.4922 7.622C60.9216 7.86467 61.2576 8.20067 61.5002 8.63C61.7429 9.05933 61.8642 9.54933 61.8642 10.1V15H60.2962V10.534C60.2962 10.1513 60.2216 9.82933 60.0722 9.568C59.9322 9.29733 59.7362 9.092 59.4842 8.952C59.2322 8.80267 58.9429 8.728 58.6162 8.728C58.2989 8.728 58.0096 8.80267 57.7482 8.952C57.4962 9.092 57.2956 9.29733 57.1462 9.568C57.0062 9.83867 56.9362 10.1607 56.9362 10.534V15H55.3542Z" fill="#818BA0"/>
</svg>
