<svg width="106" height="31" viewBox="0 0 106 31" fill="none" xmlns="http://www.w3.org/2000/svg">
<rect x="0.75" y="0.75" width="104.5" height="29.5" rx="14.75" fill="#F2F5F9" stroke="#3D4966" stroke-width="1.5"/>
<path d="M46.154 21L49.822 10.57H51.866L55.534 21H53.77L52.972 18.662H48.73L47.918 21H46.154ZM49.206 17.192H52.468L50.62 11.732H51.082L49.206 17.192ZM59.7039 21.168C58.9759 21.168 58.3226 20.9953 57.7439 20.65C57.1746 20.2953 56.7219 19.8193 56.3859 19.222C56.0593 18.6247 55.8959 17.9527 55.8959 17.206C55.8959 16.4593 56.0639 15.7873 56.3999 15.19C56.7359 14.5927 57.1886 14.1213 57.7579 13.776C58.3273 13.4307 58.9713 13.258 59.6899 13.258C60.2966 13.258 60.8333 13.3793 61.2999 13.622C61.7666 13.8647 62.1353 14.2007 62.4059 14.63L62.1679 14.994V10.402H63.7359V21H62.2379V19.46L62.4199 19.754C62.1586 20.2113 61.7853 20.5613 61.2999 20.804C60.8146 21.0467 60.2826 21.168 59.7039 21.168ZM59.8579 19.698C60.2966 19.698 60.6886 19.5907 61.0339 19.376C61.3886 19.1613 61.6639 18.8673 61.8599 18.494C62.0653 18.1113 62.1679 17.682 62.1679 17.206C62.1679 16.73 62.0653 16.3053 61.8599 15.932C61.6639 15.5587 61.3886 15.2647 61.0339 15.05C60.6886 14.8353 60.2966 14.728 59.8579 14.728C59.4193 14.728 59.0226 14.8353 58.6679 15.05C58.3133 15.2647 58.0379 15.5587 57.8419 15.932C57.6459 16.3053 57.5479 16.73 57.5479 17.206C57.5479 17.682 57.6459 18.1113 57.8419 18.494C58.0379 18.8673 58.3086 19.1613 58.6539 19.376C59.0086 19.5907 59.4099 19.698 59.8579 19.698ZM68.9428 21.168C68.2148 21.168 67.5615 20.9953 66.9828 20.65C66.4135 20.2953 65.9608 19.8193 65.6248 19.222C65.2982 18.6247 65.1348 17.9527 65.1348 17.206C65.1348 16.4593 65.3028 15.7873 65.6388 15.19C65.9748 14.5927 66.4275 14.1213 66.9968 13.776C67.5662 13.4307 68.2102 13.258 68.9288 13.258C69.5355 13.258 70.0722 13.3793 70.5388 13.622C71.0055 13.8647 71.3742 14.2007 71.6448 14.63L71.4068 14.994V10.402H72.9748V21H71.4768V19.46L71.6588 19.754C71.3975 20.2113 71.0242 20.5613 70.5388 20.804C70.0535 21.0467 69.5215 21.168 68.9428 21.168ZM69.0968 19.698C69.5355 19.698 69.9275 19.5907 70.2728 19.376C70.6275 19.1613 70.9028 18.8673 71.0988 18.494C71.3042 18.1113 71.4068 17.682 71.4068 17.206C71.4068 16.73 71.3042 16.3053 71.0988 15.932C70.9028 15.5587 70.6275 15.2647 70.2728 15.05C69.9275 14.8353 69.5355 14.728 69.0968 14.728C68.6582 14.728 68.2615 14.8353 67.9068 15.05C67.5522 15.2647 67.2768 15.5587 67.0808 15.932C66.8848 16.3053 66.7868 16.73 66.7868 17.206C66.7868 17.682 66.8848 18.1113 67.0808 18.494C67.2768 18.8673 67.5475 19.1613 67.8928 19.376C68.2475 19.5907 68.6488 19.698 69.0968 19.698Z" fill="#3D4966"/>
<path d="M32.5 9C31.2144 9 29.9577 9.38122 28.8888 10.0954C27.8199 10.8097 26.9868 11.8248 26.4948 13.0126C26.0028 14.2003 25.8741 15.5072 26.1249 16.7681C26.3757 18.029 26.9948 19.1872 27.9038 20.0962C28.8128 21.0052 29.971 21.6243 31.2319 21.8751C32.4928 22.1259 33.7997 21.9972 34.9874 21.5052C36.1752 21.0132 37.1903 20.1801 37.9046 19.1112C38.6188 18.0423 39 16.7856 39 15.5C38.9982 13.7767 38.3128 12.1244 37.0942 10.9058C35.8756 9.68722 34.2233 9.00182 32.5 9ZM32.5 21C31.4122 21 30.3488 20.6774 29.4444 20.0731C28.5399 19.4687 27.8349 18.6098 27.4187 17.6048C27.0024 16.5998 26.8935 15.4939 27.1057 14.427C27.3179 13.3601 27.8417 12.3801 28.6109 11.6109C29.3801 10.8417 30.3601 10.3179 31.427 10.1057C32.4939 9.89346 33.5998 10.0024 34.6048 10.4187C35.6098 10.8349 36.4687 11.5399 37.0731 12.4444C37.6774 13.3488 38 14.4122 38 15.5C37.9983 16.9582 37.4184 18.3562 36.3873 19.3873C35.3562 20.4183 33.9582 20.9983 32.5 21ZM35.5 15.5C35.5 15.6326 35.4473 15.7598 35.3536 15.8536C35.2598 15.9473 35.1326 16 35 16H33V18C33 18.1326 32.9473 18.2598 32.8536 18.3536C32.7598 18.4473 32.6326 18.5 32.5 18.5C32.3674 18.5 32.2402 18.4473 32.1464 18.3536C32.0527 18.2598 32 18.1326 32 18V16H30C29.8674 16 29.7402 15.9473 29.6464 15.8536C29.5527 15.7598 29.5 15.6326 29.5 15.5C29.5 15.3674 29.5527 15.2402 29.6464 15.1464C29.7402 15.0527 29.8674 15 30 15H32V13C32 12.8674 32.0527 12.7402 32.1464 12.6464C32.2402 12.5527 32.3674 12.5 32.5 12.5C32.6326 12.5 32.7598 12.5527 32.8536 12.6464C32.9473 12.7402 33 12.8674 33 13V15H35C35.1326 15 35.2598 15.0527 35.3536 15.1464C35.4473 15.2402 35.5 15.3674 35.5 15.5Z" fill="#3D4966"/>
</svg>
