<svg width="116" height="32" viewBox="0 0 116 32" fill="none" xmlns="http://www.w3.org/2000/svg">
<path fill-rule="evenodd" clip-rule="evenodd" d="M7.49014 3.24447C7.08256 3.49715 6.68835 4.18514 6.68835 4.64384C6.68835 5.43379 8.56858 9.49875 9.53418 10.7963C10.1775 11.6606 11.2364 12.7508 11.4327 12.7508C11.5047 12.7508 11.5637 12.7991 11.5637 12.8582C11.5637 12.9502 11.9338 13.1603 13.1289 13.7465C13.5756 13.9656 15.6903 13.8846 16.2603 13.6265C17.5938 13.0228 18.8791 11.874 19.8115 10.4524C20.424 9.51853 21.7324 6.88833 21.7324 6.59107C21.7324 6.48534 21.7823 6.33922 21.8433 6.26651C22.0373 6.03486 22.3305 5.0407 22.3195 4.65206C22.3056 4.16062 21.9518 3.48977 21.5629 3.21744C21.3804 3.08957 20.9606 3 20.5438 3C19.5258 3 19.1249 3.43461 18.5486 5.16314C17.4972 8.3171 15.2362 12.4722 14.5712 12.4722C14.381 12.4722 13.4135 11.3635 13.2035 10.9051C13.107 10.6943 12.9807 10.522 12.9227 10.522C12.8648 10.522 12.8174 10.4506 12.8174 10.3634C12.8174 10.276 12.643 9.91553 12.43 9.56241C11.968 8.79655 10.7174 5.81547 10.2906 4.46262C10.1939 4.15616 9.927 3.70164 9.69758 3.45271C9.33123 3.05516 9.19444 3.00042 8.57638 3.00376C8.16211 3.00585 7.71511 3.10489 7.49014 3.24447ZM7.06167 28.8142C7.48429 29.0408 8.27721 29.0382 8.67446 28.8089C9.35858 28.4139 11.9388 24.7531 12.5797 23.2681C13.0066 22.2788 13.4212 20.8167 13.3231 20.6467C13.2871 20.5843 13.2994 20.509 13.3506 20.4795C13.4303 20.4335 13.4272 20.0079 13.3373 18.6799C13.3037 18.1835 12.1763 16.3926 11.6677 16.028C10.4782 15.175 8.84065 14.6363 7.14323 14.5396C6.02825 14.4761 3.09622 14.6581 2.83879 14.8067C2.74722 14.8596 2.59574 14.8895 2.50227 14.873C2.20463 14.8208 1.19705 15.0639 0.865985 15.2677C0.447352 15.5255 0.0432815 16.1674 0.00189919 16.6403C-0.017604 16.8623 0.114749 17.2707 0.323137 17.6316C0.832127 18.5132 1.40895 18.6431 3.19404 18.2779C6.45116 17.6115 11.1801 17.4921 11.5126 18.068C11.6077 18.2327 11.1313 19.6249 10.8393 20.0359C10.705 20.2249 10.619 20.4205 10.6479 20.4707C10.6769 20.5208 10.6387 20.5976 10.5632 20.6412C10.4875 20.6849 10.2625 21.0161 10.0632 21.3771C9.631 22.1602 7.67461 24.7338 6.71641 25.7799C6.49935 26.0168 6.23916 26.4752 6.1383 26.7984C5.97718 27.3144 5.99817 27.4602 6.31009 27.9938C6.51904 28.3515 6.82831 28.6891 7.06167 28.8142ZM28.5772 15.2718C28.9744 15.5011 29.3731 16.1865 29.3882 16.6659C29.3966 16.9305 29.2588 17.3671 29.0535 17.7269C28.7474 18.2638 28.6316 18.3549 28.1041 18.4734C27.7738 18.5476 27.2467 18.5515 26.933 18.482C25.548 18.1752 22.341 17.7677 21.4467 17.7849C21.0344 17.7928 20.635 17.7636 20.5594 17.7199C20.4839 17.6763 20.3983 17.6816 20.3693 17.7318C20.3404 17.782 20.128 17.8053 19.8972 17.7835C19.3952 17.7361 17.9513 18.0197 17.8562 18.1843C17.5237 18.7602 19.9916 22.7959 22.1973 25.2835C23.4061 26.6468 23.5821 27.2113 23.0731 28.0929C22.8647 28.4538 22.5772 28.7726 22.3752 28.8667C21.9449 29.0674 21.187 29.0383 20.7545 28.8047C20.4124 28.6199 19.698 27.8689 19.5944 27.585C19.562 27.4958 19.4604 27.3796 19.3688 27.3267C19.1114 27.1781 17.4878 24.7299 16.9853 23.7325C16.2203 22.2141 15.8681 20.5267 16.012 19.07C16.0734 18.4473 17.0607 16.5755 17.4738 16.2981C18.579 15.5563 18.9459 15.3408 19.0257 15.3868C19.0768 15.4164 19.1482 15.3894 19.1842 15.327C19.2823 15.157 20.7559 14.785 21.8261 14.6601C23.4326 14.4727 27.8931 14.8768 28.5772 15.2718Z" fill="#458CFF"/>
<path d="M39.728 26V8.12H42.848L49.544 17.216H48.056L54.608 8.12H57.728V26H54.44V11.84L55.712 12.152L48.92 21.2H48.536L41.912 12.152L42.992 11.84V26H39.728ZM66.1179 26.288C64.7739 26.288 63.5979 25.984 62.5899 25.376C61.5819 24.768 60.7979 23.944 60.2379 22.904C59.6779 21.864 59.3979 20.712 59.3979 19.448C59.3979 18.136 59.6779 16.976 60.2379 15.968C60.8139 14.944 61.5899 14.136 62.5659 13.544C63.5579 12.952 64.6619 12.656 65.8779 12.656C66.9019 12.656 67.7979 12.824 68.5659 13.16C69.3499 13.496 70.0139 13.96 70.5579 14.552C71.1019 15.144 71.5179 15.824 71.8059 16.592C72.0939 17.344 72.2379 18.16 72.2379 19.04C72.2379 19.264 72.2219 19.496 72.1899 19.736C72.1739 19.976 72.1339 20.184 72.0699 20.36H61.9899V17.96H70.2939L68.8059 19.088C68.9499 18.352 68.9099 17.696 68.6859 17.12C68.4779 16.544 68.1259 16.088 67.6299 15.752C67.1499 15.416 66.5659 15.248 65.8779 15.248C65.2219 15.248 64.6379 15.416 64.1259 15.752C63.6139 16.072 63.2219 16.552 62.9499 17.192C62.6939 17.816 62.5979 18.576 62.6619 19.472C62.5979 20.272 62.7019 20.984 62.9739 21.608C63.2619 22.216 63.6779 22.688 64.2219 23.024C64.7819 23.36 65.4219 23.528 66.1419 23.528C66.8619 23.528 67.4699 23.376 67.9659 23.072C68.4779 22.768 68.8779 22.36 69.1659 21.848L71.7099 23.096C71.4539 23.72 71.0539 24.272 70.5099 24.752C69.9659 25.232 69.3179 25.608 68.5659 25.88C67.8299 26.152 67.0139 26.288 66.1179 26.288ZM79.7332 26.288C78.4692 26.288 77.3412 25.992 76.3492 25.4C75.3572 24.792 74.5732 23.968 73.9972 22.928C73.4212 21.888 73.1332 20.736 73.1332 19.472C73.1332 18.192 73.4212 17.04 73.9972 16.016C74.5732 14.992 75.3572 14.176 76.3492 13.568C77.3572 12.96 78.4772 12.656 79.7092 12.656C80.7012 12.656 81.5812 12.856 82.3492 13.256C83.1332 13.64 83.7492 14.184 84.1972 14.888L83.7172 15.536V7.832H86.8612V26H83.8852V23.48L84.2212 24.104C83.7732 24.808 83.1492 25.352 82.3492 25.736C81.5492 26.104 80.6772 26.288 79.7332 26.288ZM80.0692 23.408C80.7892 23.408 81.4212 23.24 81.9652 22.904C82.5092 22.568 82.9332 22.104 83.2372 21.512C83.5572 20.92 83.7172 20.24 83.7172 19.472C83.7172 18.72 83.5572 18.048 83.2372 17.456C82.9332 16.848 82.5092 16.376 81.9652 16.04C81.4212 15.704 80.7892 15.536 80.0692 15.536C79.3652 15.536 78.7332 15.712 78.1732 16.064C77.6132 16.4 77.1732 16.864 76.8532 17.456C76.5492 18.032 76.3972 18.704 76.3972 19.472C76.3972 20.24 76.5492 20.92 76.8532 21.512C77.1732 22.104 77.6132 22.568 78.1732 22.904C78.7332 23.24 79.3652 23.408 80.0692 23.408ZM90.3142 26V22.64H93.4822V26H90.3142ZM96.9365 26V12.944H100.08V26H96.9365ZM96.9365 11.48V8.12H100.08V11.48H96.9365ZM108.407 26.288C107.127 26.288 105.959 25.992 104.903 25.4C103.863 24.808 103.031 24 102.407 22.976C101.799 21.952 101.495 20.784 101.495 19.472C101.495 18.16 101.799 16.992 102.407 15.968C103.031 14.944 103.863 14.136 104.903 13.544C105.943 12.952 107.111 12.656 108.407 12.656C109.687 12.656 110.847 12.952 111.887 13.544C112.927 14.136 113.751 14.944 114.359 15.968C114.983 16.976 115.295 18.144 115.295 19.472C115.295 20.784 114.983 21.952 114.359 22.976C113.735 24 112.903 24.808 111.863 25.4C110.823 25.992 109.671 26.288 108.407 26.288ZM108.407 23.408C109.111 23.408 109.727 23.24 110.255 22.904C110.799 22.568 111.223 22.104 111.527 21.512C111.847 20.904 112.007 20.224 112.007 19.472C112.007 18.704 111.847 18.032 111.527 17.456C111.223 16.864 110.799 16.4 110.255 16.064C109.727 15.712 109.111 15.536 108.407 15.536C107.687 15.536 107.055 15.712 106.511 16.064C105.967 16.4 105.535 16.864 105.215 17.456C104.911 18.032 104.759 18.704 104.759 19.472C104.759 20.224 104.911 20.904 105.215 21.512C105.535 22.104 105.967 22.568 106.511 22.904C107.055 23.24 107.687 23.408 108.407 23.408Z" fill="#458CFF"/>
</svg>
